<svg width="18" height="19" viewBox="0 0 18 19" fill="none" xmlns="http://www.w3.org/2000/svg">
<path d="M11.25 17.5625H6.75C2.6775 17.5625 0.9375 15.8225 0.9375 11.75V7.25C0.9375 3.1775 2.6775 1.4375 6.75 1.4375H11.25C15.3225 1.4375 17.0625 3.1775 17.0625 7.25V11.75C17.0625 15.8225 15.3225 17.5625 11.25 17.5625ZM6.75 2.5625C3.2925 2.5625 2.0625 3.7925 2.0625 7.25V11.75C2.0625 15.2075 3.2925 16.4375 6.75 16.4375H11.25C14.7075 16.4375 15.9375 15.2075 15.9375 11.75V7.25C15.9375 3.7925 14.7075 2.5625 11.25 2.5625H6.75Z" fill="#929EAE"/>
<path d="M5.49742 11.9284C5.37742 11.9284 5.25742 11.8909 5.15242 11.8084C5.09381 11.7636 5.04461 11.7077 5.00762 11.6439C4.97062 11.58 4.94656 11.5095 4.93681 11.4364C4.92706 11.3633 4.93181 11.289 4.95079 11.2177C4.96977 11.1464 5.0026 11.0795 5.04742 11.0209L6.83242 8.70342C7.04992 8.42592 7.35742 8.24592 7.70992 8.20092C8.05492 8.15592 8.40742 8.25342 8.68492 8.47092L10.0574 9.55092C10.1099 9.59592 10.1624 9.59592 10.1999 9.58842C10.2299 9.58842 10.2824 9.57342 10.3274 9.51342L12.0599 7.27842C12.1047 7.21963 12.1608 7.17038 12.2249 7.13356C12.289 7.09675 12.3598 7.0731 12.4332 7.06402C12.5065 7.05494 12.5809 7.0606 12.6521 7.08067C12.7232 7.10075 12.7896 7.13483 12.8474 7.18092C13.0949 7.36842 13.1399 7.72092 12.9449 7.96842L11.2124 10.2034C10.9949 10.4809 10.6874 10.6609 10.3349 10.6984C9.98242 10.7434 9.63742 10.6459 9.35992 10.4284L7.98742 9.34842C7.9682 9.33155 7.94532 9.31939 7.92059 9.31288C7.89586 9.30637 7.86995 9.3057 7.84492 9.31092C7.81492 9.31092 7.76242 9.32592 7.71742 9.38592L5.93242 11.7034C5.83492 11.8534 5.66992 11.9284 5.49742 11.9284Z" fill="#929EAE"/>
</svg>
