<svg width="20" height="20" viewBox="0 0 20 20" fill="none" xmlns="http://www.w3.org/2000/svg">
<path d="M9.18325 16.25H6.24992C5.73325 16.25 5.27492 16.2334 4.86659 16.175C2.67492 15.9334 2.08325 14.9 2.08325 12.0834V7.91669C2.08325 5.10002 2.67492 4.06669 4.86659 3.82502C5.27492 3.76669 5.73325 3.75002 6.24992 3.75002H9.13325M12.5166 3.75002H13.7499C14.2666 3.75002 14.7249 3.76669 15.1333 3.82502C17.3249 4.06669 17.9166 5.10002 17.9166 7.91669V12.0834C17.9166 14.9 17.3249 15.9334 15.1333 16.175C14.7249 16.2334 14.2666 16.25 13.7499 16.25H12.5166M12.4999 1.66669V18.3334M6.66659 7.08335V12.9167" stroke="white" stroke-width="1.5" stroke-linecap="round" stroke-linejoin="round"/>
</svg>
