<svg width="20" height="20" viewBox="0 0 20 20" fill="none" xmlns="http://www.w3.org/2000/svg">
<path d="M4.99999 4.16672V5.83338M8.33332 4.16672V5.83338M4.99999 14.1667V15.8334M8.33332 14.1667V15.8334M11.6667 5.00005H15M11.6667 15H15M16.1 8.33338H3.90832C2.67499 8.33338 1.67499 7.32505 1.67499 6.10005V3.90838C1.67499 2.67505 2.68332 1.67505 3.90832 1.67505H16.1C17.3333 1.67505 18.3333 2.68338 18.3333 3.90838V6.10005C18.3333 7.32505 17.325 8.33338 16.1 8.33338ZM16.1 18.3334H3.90832C2.67499 18.3334 1.67499 17.325 1.67499 16.1V13.9084C1.67499 12.675 2.68332 11.675 3.90832 11.675H16.1C17.3333 11.675 18.3333 12.6834 18.3333 13.9084V16.1C18.3333 17.325 17.325 18.3334 16.1 18.3334Z" stroke="white" stroke-width="1.5" stroke-linecap="round" stroke-linejoin="round"/>
</svg>
