<svg width="20" height="20" viewBox="0 0 20 20" fill="none" xmlns="http://www.w3.org/2000/svg">
<path d="M18.3334 18.9583H4.16675C2.44175 18.9583 1.04175 17.5583 1.04175 15.8333V1.66663C1.04175 1.32496 1.32508 1.04163 1.66675 1.04163C2.00841 1.04163 2.29175 1.32496 2.29175 1.66663V15.8333C2.29175 16.8666 3.13341 17.7083 4.16675 17.7083H18.3334C18.6751 17.7083 18.9584 17.9916 18.9584 18.3333C18.9584 18.675 18.6751 18.9583 18.3334 18.9583Z" fill="white"/>
<path d="M4.16667 14.7917C4.025 14.7917 3.875 14.7417 3.75834 14.6417C3.6332 14.5329 3.55602 14.3791 3.54354 14.2137C3.53106 14.0483 3.58428 13.8847 3.69167 13.7583L7.51667 9.29168C7.93334 8.80835 8.53334 8.51668 9.16667 8.49168C9.8 8.47501 10.425 8.70835 10.875 9.15835L11.6667 9.95001C11.875 10.1583 12.15 10.2583 12.4417 10.2583C12.7333 10.25 13 10.1167 13.1917 9.89168L17.0167 5.42501C17.2417 5.16668 17.6333 5.13335 17.9 5.35835C18.1583 5.58335 18.1917 5.97501 17.9667 6.24168L14.1417 10.7083C13.725 11.1917 13.125 11.4833 12.4917 11.5083C11.8583 11.525 11.2333 11.2917 10.7833 10.8417L10 10.05C9.79167 9.84168 9.51667 9.73335 9.225 9.74168C8.93334 9.75001 8.66667 9.88335 8.475 10.1083L4.65 14.575C4.58852 14.6422 4.51391 14.6961 4.43078 14.7334C4.34765 14.7707 4.25776 14.7905 4.16667 14.7917Z" fill="white"/>
</svg>
