<svg width="20" height="20" viewBox="0 0 20 20" fill="none" xmlns="http://www.w3.org/2000/svg">
<path d="M14.1667 17.7083H5.83341C2.79175 17.7083 1.04175 15.9583 1.04175 12.9166V7.08329C1.04175 4.04163 2.79175 2.29163 5.83341 2.29163H14.1667C17.2084 2.29163 18.9584 4.04163 18.9584 7.08329V12.9166C18.9584 15.9583 17.2084 17.7083 14.1667 17.7083ZM5.83341 3.54163C3.45008 3.54163 2.29175 4.69996 2.29175 7.08329V12.9166C2.29175 15.3 3.45008 16.4583 5.83341 16.4583H14.1667C16.5501 16.4583 17.7084 15.3 17.7084 12.9166V7.08329C17.7084 4.69996 16.5501 3.54163 14.1667 3.54163H5.83341Z" fill="white"/>
<path d="M9.99992 13.125C8.27492 13.125 6.87492 11.725 6.87492 10C6.87492 8.275 8.27492 6.875 9.99992 6.875C11.7249 6.875 13.1249 8.275 13.1249 10C13.1249 11.725 11.7249 13.125 9.99992 13.125ZM9.99992 8.125C8.96658 8.125 8.12492 8.96667 8.12492 10C8.12492 11.0333 8.96658 11.875 9.99992 11.875C11.0333 11.875 11.8749 11.0333 11.8749 10C11.8749 8.96667 11.0333 8.125 9.99992 8.125ZM4.58325 12.7083C4.24159 12.7083 3.95825 12.425 3.95825 12.0833V7.91667C3.95825 7.575 4.24159 7.29167 4.58325 7.29167C4.92492 7.29167 5.20825 7.575 5.20825 7.91667V12.0833C5.20825 12.425 4.92492 12.7083 4.58325 12.7083ZM15.4166 12.7083C15.0749 12.7083 14.7916 12.425 14.7916 12.0833V7.91667C14.7916 7.575 15.0749 7.29167 15.4166 7.29167C15.7583 7.29167 16.0416 7.575 16.0416 7.91667V12.0833C16.0416 12.425 15.7583 12.7083 15.4166 12.7083Z" fill="white"/>
</svg>
