<svg width="18" height="19" viewBox="0 0 18 19" fill="none" xmlns="http://www.w3.org/2000/svg">
<path d="M9 13.4375C6.8325 13.4375 5.0625 11.675 5.0625 9.5C5.0625 7.325 6.8325 5.5625 9 5.5625C11.1675 5.5625 12.9375 7.325 12.9375 9.5C12.9375 11.675 11.1675 13.4375 9 13.4375ZM9 6.6875C7.4475 6.6875 6.1875 7.9475 6.1875 9.5C6.1875 11.0525 7.4475 12.3125 9 12.3125C10.5525 12.3125 11.8125 11.0525 11.8125 9.5C11.8125 7.9475 10.5525 6.6875 9 6.6875Z" fill="#929EAE"/>
<path d="M5.25 10.0625H1.5C1.1925 10.0625 0.9375 9.8075 0.9375 9.5C0.9375 9.1925 1.1925 8.9375 1.5 8.9375H5.25C5.5575 8.9375 5.8125 9.1925 5.8125 9.5C5.8125 9.8075 5.5575 10.0625 5.25 10.0625ZM16.5 10.0625H12.75C12.4425 10.0625 12.1875 9.8075 12.1875 9.5C12.1875 9.1925 12.4425 8.9375 12.75 8.9375H16.5C16.8075 8.9375 17.0625 9.1925 17.0625 9.5C17.0625 9.8075 16.8075 10.0625 16.5 10.0625Z" fill="#929EAE"/>
</svg>
