<svg width="18" height="18" viewBox="0 0 18 18" fill="none" xmlns="http://www.w3.org/2000/svg">
<path d="M10.8975 7.1025L7.1025 10.8975C6.59925 10.3942 6.31653 9.7117 6.31653 9C6.31653 8.6476 6.38594 8.29865 6.5208 7.97308C6.65565 7.6475 6.85332 7.35168 7.1025 7.1025C7.35168 6.85332 7.6475 6.65565 7.97308 6.5208C8.29865 6.38594 8.6476 6.31653 9 6.31653C9.7117 6.31653 10.3942 6.59925 10.8975 7.1025Z" stroke="white" stroke-linecap="round" stroke-linejoin="round"/>
<path d="M13.365 4.32749C12.0525 3.33749 10.5525 2.79749 9.00001 2.79749C6.35251 2.79749 3.88501 4.35749 2.1675 7.05748C1.4925 8.11498 1.4925 9.89248 2.1675 10.95C2.76001 11.88 3.45 12.6825 4.20001 13.3275M6.31501 14.6475C7.17001 15.0075 8.07751 15.2025 9.00001 15.2025C11.6475 15.2025 14.115 13.6425 15.8325 10.9425C16.5075 9.88498 16.5075 8.10748 15.8325 7.04998C15.585 6.65998 15.315 6.29248 15.0375 5.94748" stroke="white" stroke-linecap="round" stroke-linejoin="round"/>
<path d="M11.6325 9.525C11.5309 10.0482 11.2753 10.5291 10.8984 10.9059C10.5216 11.2828 10.0407 11.5384 9.5175 11.64M7.1025 10.8975L1.5 16.5M16.5 1.5L10.8975 7.1025" stroke="white" stroke-linecap="round" stroke-linejoin="round"/>
</svg>
