<svg width="24" height="24" viewBox="0 0 24 24" fill="none" xmlns="http://www.w3.org/2000/svg">
<path d="M9.47188 15.282C9.28188 15.282 9.09188 15.212 8.94188 15.062C8.53858 14.6611 8.21871 14.1843 8.00073 13.6591C7.78275 13.1338 7.67098 12.5706 7.67188 12.002C7.67188 9.612 9.61188 7.672 12.0019 7.672C13.1519 7.672 14.2419 8.122 15.0619 8.942C15.2023 9.08262 15.2812 9.27325 15.2812 9.472C15.2812 9.67075 15.2023 9.86137 15.0619 10.002L10.0019 15.062C9.85188 15.212 9.66188 15.282 9.47188 15.282ZM12.0019 9.172C11.507 9.1731 11.021 9.30378 10.5923 9.55102C10.1636 9.79827 9.80715 10.1535 9.55836 10.5813C9.30957 11.0091 9.17714 11.4946 9.17425 11.9894C9.17136 12.4843 9.2981 12.9713 9.54188 13.402L13.4019 9.542C12.9819 9.302 12.5019 9.172 12.0019 9.172Z" fill="white"/>
<path d="M5.59984 18.51C5.42984 18.51 5.24984 18.45 5.10984 18.33C4.03984 17.42 3.07984 16.3 2.25984 15C1.19984 13.35 1.19984 10.66 2.25984 8.99998C4.69984 5.17998 8.24984 2.97998 11.9998 2.97998C14.1998 2.97998 16.3698 3.73998 18.2698 5.16998C18.429 5.28933 18.5342 5.467 18.5623 5.66391C18.5904 5.86083 18.5392 6.06085 18.4198 6.21998C18.3005 6.37911 18.1228 6.48431 17.9259 6.51244C17.729 6.54057 17.529 6.48933 17.3698 6.36998C15.7298 5.12998 13.8698 4.47998 11.9998 4.47998C8.76984 4.47998 5.67984 6.41998 3.51984 9.80998C2.76984 10.98 2.76984 13.02 3.51984 14.19C4.26984 15.36 5.12984 16.37 6.07984 17.19C6.38984 17.46 6.42984 17.93 6.15984 18.25C6.01984 18.42 5.80984 18.51 5.59984 18.51ZM11.9988 21.02C10.6688 21.02 9.36884 20.75 8.11884 20.22C7.93612 20.1427 7.79143 19.9963 7.71647 19.8126C7.6415 19.6289 7.64235 19.423 7.71884 19.24C7.87884 18.86 8.31884 18.68 8.69884 18.84C9.75884 19.29 10.8688 19.52 11.9888 19.52C15.2188 19.52 18.3088 17.58 20.4688 14.19C21.2188 13.02 21.2188 10.98 20.4688 9.80998C20.1588 9.31998 19.8188 8.84998 19.4588 8.40998C19.3345 8.25417 19.2764 8.05575 19.2969 7.85747C19.3175 7.65919 19.4152 7.47694 19.5688 7.34998C19.6455 7.28715 19.7338 7.24013 19.8287 7.21164C19.9236 7.18315 20.0232 7.17374 20.1218 7.18397C20.2203 7.1942 20.3159 7.22386 20.4029 7.27123C20.49 7.31861 20.5667 7.38276 20.6288 7.45998C21.0188 7.93998 21.3988 8.45998 21.7388 8.99998C22.7988 10.65 22.7988 13.34 21.7388 15C19.2988 18.82 15.7488 21.02 11.9988 21.02Z" fill="white"/>
<path d="M12.6912 16.268C12.3412 16.268 12.0212 16.018 11.9512 15.658C11.8712 15.248 12.1412 14.858 12.5512 14.788C13.6512 14.588 14.5712 13.668 14.7712 12.568C14.8512 12.158 15.2412 11.898 15.6512 11.968C16.0612 12.048 16.3312 12.438 16.2512 12.848C15.9312 14.578 14.5512 15.948 12.8312 16.268C12.7812 16.258 12.7412 16.268 12.6912 16.268ZM2.0012 22.749C1.8112 22.749 1.6212 22.679 1.4712 22.529C1.33196 22.3877 1.25391 22.1973 1.25391 21.999C1.25391 21.8006 1.33196 21.6102 1.4712 21.469L8.9412 13.999C9.2312 13.709 9.7112 13.709 10.0012 13.999C10.2912 14.289 10.2912 14.769 10.0012 15.059L2.5312 22.529C2.3812 22.679 2.1912 22.749 2.0012 22.749ZM14.5292 10.221C14.3392 10.221 14.1492 10.151 13.9992 10.001C13.8597 9.85984 13.7815 9.66941 13.7815 9.47098C13.7815 9.27255 13.8597 9.08212 13.9992 8.94098L21.4692 1.47098C21.7592 1.18098 22.2392 1.18098 22.5292 1.47098C22.8192 1.76098 22.8192 2.24098 22.5292 2.53098L15.0592 10.001C14.9092 10.151 14.7192 10.221 14.5292 10.221Z" fill="white"/>
</svg>
