<svg width="20" height="20" viewBox="0 0 20 20" fill="none" xmlns="http://www.w3.org/2000/svg">
<path d="M12.7 18.5583H12.5917C8.89167 18.5583 7.10834 17.1 6.8 13.8333C6.76667 13.4917 7.01667 13.1833 7.36667 13.15C7.70834 13.1167 8.01667 13.375 8.05 13.7167C8.29167 16.3333 9.525 17.3083 12.6 17.3083H12.7083C16.1 17.3083 17.3 16.1083 17.3 12.7167V7.28332C17.3 3.89165 16.1 2.69165 12.7083 2.69165H12.6C9.50834 2.69165 8.275 3.68332 8.05 6.34998C8.00834 6.69165 7.725 6.94998 7.36667 6.91665C7.28454 6.91023 7.20448 6.88766 7.13109 6.85024C7.0577 6.81281 6.99243 6.76126 6.939 6.69855C6.88558 6.63584 6.84507 6.5632 6.81978 6.48479C6.7945 6.40638 6.78495 6.32376 6.79167 6.24165C7.075 2.92498 8.86667 1.44165 12.5917 1.44165H12.7C16.7917 1.44165 18.5417 3.19165 18.5417 7.28332V12.7167C18.5417 16.8083 16.7917 18.5583 12.7 18.5583Z" fill="white"/>
<path d="M12.4 10.625H1.66666C1.32499 10.625 1.04166 10.3417 1.04166 10C1.04166 9.65833 1.32499 9.375 1.66666 9.375H12.4C12.5657 9.375 12.7247 9.44085 12.8419 9.55806C12.9591 9.67527 13.025 9.83424 13.025 10C13.025 10.1658 12.9591 10.3247 12.8419 10.4419C12.7247 10.5592 12.5657 10.625 12.4 10.625Z" fill="white"/>
<path d="M10.5417 13.4166C10.3833 13.4166 10.225 13.3583 10.1 13.2333C9.98376 13.1157 9.91858 12.957 9.91858 12.7916C9.91858 12.6263 9.98376 12.4676 10.1 12.35L12.45 9.99997L10.1 7.64997C9.98376 7.53236 9.91858 7.37366 9.91858 7.2083C9.91858 7.04295 9.98376 6.88425 10.1 6.76664C10.3417 6.52497 10.7417 6.52497 10.9833 6.76664L13.775 9.55831C14.0167 9.79997 14.0167 10.2 13.775 10.4416L10.9833 13.2333C10.8583 13.3583 10.7 13.4166 10.5417 13.4166Z" fill="white"/>
</svg>
