<svg width="20" height="20" viewBox="0 0 20 20" fill="none" xmlns="http://www.w3.org/2000/svg">
<g clip-path="url(#clip0_1032_9511)">
<path d="M14.1667 2.50002H17.5001M17.5001 2.50002V5.83335M17.5001 2.50002L12.5001 7.50002M5.83341 17.5H2.50008M2.50008 17.5V14.1667M2.50008 17.5L7.50008 12.5M11.6834 1.83335C11.1417 1.72502 10.5751 1.66669 10.0001 1.66669C5.40008 1.66669 1.66675 5.40002 1.66675 10C1.66675 10.575 1.72508 11.1334 1.83341 11.6667M8.31675 18.1667C8.85841 18.275 9.42508 18.3334 10.0001 18.3334C14.6001 18.3334 18.3334 14.6 18.3334 10C18.3334 9.43335 18.2751 8.87502 18.1667 8.33335" stroke="white" stroke-width="1.5" stroke-linecap="round" stroke-linejoin="round"/>
</g>
<defs>
<clipPath id="clip0_1032_9511">
<rect width="20" height="20" fill="white"/>
</clipPath>
</defs>
</svg>
