<svg width="20" height="20" viewBox="0 0 20 20" fill="none" xmlns="http://www.w3.org/2000/svg">
<path d="M14.1667 17.0834H5.83341C3.33341 17.0834 1.66675 15.8334 1.66675 12.9167V7.08335C1.66675 4.16669 3.33341 2.91669 5.83341 2.91669H14.1667C16.6667 2.91669 18.3334 4.16669 18.3334 7.08335V12.9167C18.3334 15.8334 16.6667 17.0834 14.1667 17.0834Z" stroke="white" stroke-width="1.5" stroke-miterlimit="10" stroke-linecap="round" stroke-linejoin="round"/>
<path d="M4.58325 7.91667V12.0833M15.4166 7.91667V12.0833M9.99992 12.5C10.663 12.5 11.2988 12.2366 11.7677 11.7678C12.2365 11.2989 12.4999 10.663 12.4999 10C12.4999 9.33696 12.2365 8.70107 11.7677 8.23223C11.2988 7.76339 10.663 7.5 9.99992 7.5C9.33688 7.5 8.70099 7.76339 8.23215 8.23223C7.76331 8.70107 7.49992 9.33696 7.49992 10C7.49992 10.663 7.76331 11.2989 8.23215 11.7678C8.70099 12.2366 9.33688 12.5 9.99992 12.5Z" stroke="white" stroke-width="1.5" stroke-miterlimit="10" stroke-linecap="round" stroke-linejoin="round"/>
</svg>
