<svg width="18" height="19" viewBox="0 0 18 19" fill="none" xmlns="http://www.w3.org/2000/svg">
<path d="M9 12.3125C7.4475 12.3125 6.1875 11.0525 6.1875 9.5C6.1875 7.9475 7.4475 6.6875 9 6.6875C10.5525 6.6875 11.8125 7.9475 11.8125 9.5C11.8125 11.0525 10.5525 12.3125 9 12.3125ZM9 7.8125C8.07 7.8125 7.3125 8.57 7.3125 9.5C7.3125 10.43 8.07 11.1875 9 11.1875C9.93 11.1875 10.6875 10.43 10.6875 9.5C10.6875 8.57 9.93 7.8125 9 7.8125Z" fill="#929EAE"/>
<path d="M11.4075 17.1425C11.25 17.1425 11.0925 17.12 10.935 17.0825C10.47 16.955 10.08 16.6625 9.8325 16.25L9.7425 16.1C9.3 15.335 8.6925 15.335 8.25 16.1L8.1675 16.2425C7.92 16.6625 7.53 16.9625 7.065 17.0825C6.5925 17.21 6.105 17.1425 5.6925 16.895L4.4025 16.1525C4.17583 16.0226 3.97699 15.8493 3.81735 15.6425C3.65772 15.4357 3.54041 15.1995 3.47214 14.9473C3.40388 14.6952 3.386 14.432 3.41952 14.173C3.45304 13.9139 3.53731 13.664 3.6675 13.4375C3.885 13.055 3.945 12.71 3.8175 12.4925C3.69 12.275 3.3675 12.1475 2.925 12.1475C1.83 12.1475 0.9375 11.255 0.9375 10.16V8.83997C0.9375 7.74497 1.83 6.85247 2.925 6.85247C3.3675 6.85247 3.69 6.72497 3.8175 6.50747C3.945 6.28997 3.8925 5.94497 3.6675 5.56247C3.405 5.10497 3.3375 4.56497 3.4725 4.05497C3.6075 3.53747 3.9375 3.10997 4.4025 2.84747L5.7 2.10497C6.5475 1.60247 7.665 1.89497 8.175 2.75747L8.265 2.90747C8.7075 3.67247 9.315 3.67247 9.7575 2.90747L9.84 2.76497C10.35 1.89497 11.4675 1.60247 12.3225 2.11247L13.6125 2.85497C13.8392 2.98485 14.038 3.15813 14.1976 3.36492C14.3573 3.5717 14.4746 3.80793 14.5429 4.06009C14.6111 4.31226 14.629 4.5754 14.5955 4.83448C14.562 5.09356 14.4777 5.34349 14.3475 5.56997C14.13 5.95247 14.07 6.29747 14.1975 6.51497C14.325 6.73247 14.6475 6.85997 15.09 6.85997C16.185 6.85997 17.0775 7.75247 17.0775 8.84747V10.1675C17.0775 11.2625 16.185 12.155 15.09 12.155C14.6475 12.155 14.325 12.2825 14.1975 12.5C14.07 12.7175 14.1225 13.0625 14.3475 13.445C14.61 13.9025 14.685 14.4425 14.5425 14.9525C14.4773 15.2062 14.3613 15.4441 14.2014 15.6516C14.0415 15.8592 13.8412 16.0321 13.6125 16.16L12.315 16.9025C12.03 17.06 11.7225 17.1425 11.4075 17.1425ZM9 14.3675C9.6675 14.3675 10.29 14.7875 10.7175 15.53L10.8 15.6725C10.89 15.83 11.04 15.9425 11.22 15.9875C11.4 16.0325 11.58 16.01 11.73 15.92L13.0275 15.17C13.2255 15.0557 13.3705 14.868 13.4308 14.6475C13.4912 14.427 13.4622 14.1916 13.35 13.9925C12.9225 13.2575 12.87 12.5 13.2 11.9225C13.53 11.345 14.2125 11.015 15.0675 11.015C15.5475 11.015 15.93 10.6325 15.93 10.1525V8.83247C15.93 8.35997 15.5475 7.96997 15.0675 7.96997C14.2125 7.96997 13.53 7.63997 13.2 7.06247C12.87 6.48497 12.9225 5.72747 13.35 4.99247C13.4625 4.79747 13.4925 4.56497 13.4325 4.33997C13.3725 4.11497 13.23 3.93497 13.035 3.81497L11.7375 3.07247C11.6592 3.02657 11.5727 2.99656 11.4828 2.98416C11.3929 2.97176 11.3014 2.97721 11.2137 3.0002C11.1259 3.02319 11.0435 3.06327 10.9712 3.11814C10.899 3.17301 10.8382 3.2416 10.7925 3.31997L10.71 3.46247C10.2825 4.20497 9.66 4.62497 8.9925 4.62497C8.325 4.62497 7.7025 4.20497 7.275 3.46247L7.1925 3.31247C7.0993 3.1592 6.94996 3.04835 6.77626 3.00352C6.60256 2.9587 6.41823 2.98344 6.2625 3.07247L4.965 3.82247C4.76698 3.93669 4.62204 4.12443 4.56165 4.34491C4.50126 4.56539 4.53032 4.80079 4.6425 4.99997C5.07 5.73497 5.1225 6.49247 4.7925 7.06997C4.4625 7.64747 3.78 7.97747 2.925 7.97747C2.445 7.97747 2.0625 8.35997 2.0625 8.83997V10.16C2.0625 10.6325 2.445 11.0225 2.925 11.0225C3.78 11.0225 4.4625 11.3525 4.7925 11.93C5.1225 12.5075 5.07 13.265 4.6425 14C4.53 14.195 4.5 14.4275 4.56 14.6525C4.62 14.8775 4.7625 15.0575 4.9575 15.1775L6.255 15.92C6.4125 16.0175 6.6 16.04 6.7725 15.995C6.9525 15.95 7.1025 15.83 7.2 15.6725L7.2825 15.53C7.71 14.795 8.3325 14.3675 9 14.3675Z" fill="#929EAE"/>
</svg>
