<svg width="95" height="100" viewBox="0 0 95 100" fill="none" xmlns="http://www.w3.org/2000/svg">
<g opacity="0.75">
<path d="M67.0001 81.7367L26.7755 92.0818C25.4111 92.4311 23.9636 92.2256 22.7507 91.5103C21.5378 90.7951 20.6584 89.6285 20.3056 88.2666L8.14068 41.0861C7.79096 39.7234 7.99675 38.2778 8.71291 37.0664C9.42907 35.855 10.5971 34.9768 11.9608 34.6244L49.3831 25L58.9615 29.2825L70.8202 75.275C71.1699 76.6377 70.9641 78.0834 70.2479 79.2947C69.5318 80.5061 68.3637 81.3843 67.0001 81.7367Z" fill="#F2F2F2"/>
<path d="M12.3424 36.1037C11.3713 36.3546 10.5395 36.98 10.0295 37.8426C9.51953 38.7053 9.37298 39.7348 9.62203 40.7052L21.787 87.8856C22.0382 88.8555 22.6644 89.6862 23.5282 90.1956C24.3919 90.7049 25.4227 90.8513 26.3943 90.6026L66.6189 80.2574C67.59 80.0065 68.4218 79.3811 68.9318 78.5185C69.4417 77.6558 69.5883 76.6264 69.3393 75.6559L57.6643 30.376L49.2467 26.6125L12.3424 36.1037Z" fill="white"/>
<path d="M58.8591 29.5259L52.6338 31.1269C52.1794 31.2438 51.697 31.1756 51.2929 30.9373C50.8888 30.699 50.596 30.3101 50.479 29.8562L49.295 25.2642C49.2898 25.244 49.2904 25.2229 49.2967 25.2031C49.303 25.1833 49.3148 25.1657 49.3306 25.1523C49.3465 25.1389 49.3658 25.1302 49.3864 25.1273C49.407 25.1243 49.428 25.1272 49.447 25.1357L58.8764 29.318C58.8974 29.3273 58.915 29.3429 58.9267 29.3626C58.9384 29.3823 58.9436 29.4052 58.9417 29.428C58.9398 29.4509 58.9309 29.4726 58.9161 29.4901C58.9013 29.5076 58.8814 29.5201 58.8591 29.5259Z" fill="#F2F2F2"/>
<path d="M55.5846 69.8169L37.2709 74.5269C37.1584 74.5559 37.0413 74.5624 36.9262 74.5461C36.8112 74.5299 36.7005 74.4911 36.6004 74.4321C36.5004 74.3731 36.413 74.295 36.3431 74.2023C36.2733 74.1095 36.2225 74.004 36.1935 73.8916C36.1645 73.7792 36.158 73.6622 36.1743 73.5474C36.1906 73.4325 36.2293 73.3219 36.2884 73.222C36.3475 73.1221 36.4257 73.0347 36.5185 72.965C36.6114 72.8953 36.7171 72.8445 36.8296 72.8155L55.1433 68.1056C55.2558 68.0766 55.3729 68.0701 55.488 68.0864C55.603 68.1026 55.7137 68.1414 55.8138 68.2004C55.9138 68.2594 56.0012 68.3375 56.0711 68.4302C56.1409 68.523 56.1917 68.6285 56.2207 68.7409C56.2497 68.8533 56.2562 68.9702 56.2399 69.0851C56.2236 69.2 56.1848 69.3106 56.1258 69.4105C56.0667 69.5104 55.9885 69.5977 55.8956 69.6675C55.8028 69.7372 55.6971 69.788 55.5846 69.8169Z" fill="#CCCCCC"/>
<path d="M59.8629 71.796L38.015 77.4149C37.7878 77.4734 37.5466 77.4393 37.3446 77.3201C37.1425 77.201 36.9961 77.0065 36.9376 76.7796C36.8791 76.5526 36.9133 76.3118 37.0326 76.11C37.1519 75.9082 37.3465 75.762 37.5738 75.7035L59.4217 70.0846C59.6488 70.0264 59.8898 70.0607 60.0917 70.1798C60.2936 70.299 60.4398 70.4933 60.4983 70.7201C60.5568 70.947 60.5227 71.1877 60.4036 71.3894C60.2844 71.5911 60.09 71.7374 59.8629 71.796Z" fill="#CCCCCC"/>
<path d="M29.7955 80.1997C31.5225 80.1997 32.9225 78.8014 32.9225 77.0766C32.9225 75.3518 31.5225 73.9536 29.7955 73.9536C28.0685 73.9536 26.6685 75.3518 26.6685 77.0766C26.6685 78.8014 28.0685 80.1997 29.7955 80.1997Z" fill="#E6E6E6"/>
<path d="M53.6373 61.6437L29.3149 67.8967C28.612 68.0766 27.8664 67.9706 27.2415 67.6021C26.6167 67.2336 26.1638 66.6326 25.9821 65.931L20.8851 46.1552C20.705 45.4532 20.811 44.7085 21.18 44.0844C21.549 43.4604 22.1508 43.0081 22.8533 42.8266L47.1757 36.5736C47.8786 36.3937 48.6243 36.4997 49.2491 36.8682C49.8739 37.2367 50.3268 37.8377 50.5085 38.5393L55.6055 58.3151C55.7856 59.0171 55.6796 59.7618 55.3106 60.3859C54.9416 61.0099 54.3398 61.4622 53.6373 61.6437Z" fill="white"/>
<path d="M53.6373 61.6437L29.3149 67.8967C28.612 68.0766 27.8664 67.9706 27.2415 67.6021C26.6167 67.2336 26.1638 66.6326 25.9821 65.931L20.8851 46.1552C20.705 45.4532 20.811 44.7085 21.18 44.0844C21.549 43.4604 22.1508 43.0081 22.8533 42.8266L47.1757 36.5736C47.8786 36.3937 48.6243 36.4997 49.2491 36.8682C49.8739 37.2367 50.3268 37.8377 50.5085 38.5393L55.6055 58.3151C55.7856 59.0171 55.6796 59.7618 55.3106 60.3859C54.9416 61.0099 54.3398 61.4622 53.6373 61.6437ZM22.9336 43.1381C22.3137 43.2982 21.7827 43.6973 21.4572 44.2479C21.1316 44.7985 21.038 45.4556 21.1969 46.075L26.294 65.8508C26.4543 66.4699 26.8539 67.0001 27.4052 67.3253C27.9565 67.6505 28.6144 67.744 29.2347 67.5853L53.5571 61.3322C54.1769 61.1721 54.7079 60.773 55.0335 60.2224C55.359 59.6718 55.4526 59.0147 55.2937 58.3953L50.1966 38.6195C50.0363 38.0004 49.6367 37.4701 49.0854 37.145C48.5341 36.8198 47.8762 36.7263 47.2559 36.885L22.9336 43.1381Z" fill="#E6E6E6"/>
<path d="M45.9412 43.223L33.6661 46.3788C33.5587 46.4087 33.4441 46.3969 33.3452 46.3456C33.2463 46.2943 33.1706 46.2074 33.1334 46.1025C33.1161 46.0477 33.1101 45.99 33.1159 45.9328C33.1217 45.8756 33.139 45.8202 33.167 45.77C33.1949 45.7197 33.2327 45.6757 33.2783 45.6406C33.3238 45.6054 33.376 45.5799 33.4317 45.5656L45.9271 42.3531C46.4318 42.6086 46.2992 43.131 45.9412 43.223Z" fill="#F2F2F2"/>
<path d="M46.4959 45.3734L34.2207 48.5292C34.1134 48.5591 33.9987 48.5472 33.8999 48.4959C33.801 48.4447 33.7253 48.3578 33.6881 48.2529C33.6708 48.1981 33.6648 48.1403 33.6706 48.0832C33.6764 48.026 33.6937 47.9706 33.7216 47.9204C33.7496 47.8701 33.7874 47.8261 33.8329 47.7909C33.8785 47.7558 33.9307 47.7303 33.9864 47.716L46.4818 44.5035C46.9865 44.759 46.8538 45.2814 46.4959 45.3734Z" fill="#F2F2F2"/>
<path d="M31.8822 50.4358L28.1359 51.3989C28.0135 51.4302 27.8837 51.4118 27.775 51.3477C27.6662 51.2835 27.5874 51.1789 27.5558 51.0568L26.4178 46.6415C26.3864 46.5193 26.4049 46.3897 26.4691 46.281C26.5333 46.1724 26.6381 46.0937 26.7604 46.0621L30.5066 45.099C30.629 45.0677 30.7588 45.0862 30.8675 45.1503C30.9762 45.2144 31.0551 45.319 31.0867 45.4411L32.2247 49.8564C32.2561 49.9786 32.2376 50.1083 32.1734 50.2169C32.1092 50.3255 32.0044 50.4042 31.8822 50.4358Z" fill="#E6E6E6"/>
<path d="M47.5946 49.7856L28.8604 54.6019C28.7531 54.6318 28.6384 54.6199 28.5395 54.5686C28.4406 54.5173 28.3649 54.4305 28.3277 54.3256C28.3104 54.2708 28.3045 54.213 28.3102 54.1559C28.316 54.0987 28.3334 54.0433 28.3613 53.9931C28.3892 53.9428 28.4271 53.8988 28.4726 53.8636C28.5181 53.8285 28.5703 53.803 28.626 53.7887L47.5806 48.9156C48.0853 49.1711 47.9525 49.6935 47.5946 49.7856Z" fill="#F2F2F2"/>
<path d="M48.1493 51.9367L29.4151 56.753C29.3078 56.7829 29.1931 56.7711 29.0942 56.7198C28.9953 56.6685 28.9196 56.5816 28.8824 56.4767C28.8651 56.4219 28.8592 56.3642 28.8649 56.307C28.8707 56.2498 28.8881 56.1944 28.916 56.1442C28.9439 56.0939 28.9818 56.0499 29.0273 56.0147C29.0728 55.9796 29.125 55.9541 29.1807 55.9398L48.1353 51.0668C48.64 51.3222 48.5072 51.8446 48.1493 51.9367Z" fill="#F2F2F2"/>
<path d="M48.703 54.0863L29.9688 58.9026C29.8615 58.9325 29.7468 58.9207 29.6479 58.8694C29.549 58.8181 29.4733 58.7312 29.4361 58.6263C29.4188 58.5715 29.4129 58.5138 29.4186 58.4566C29.4244 58.3994 29.4418 58.344 29.4697 58.2938C29.4976 58.2435 29.5355 58.1995 29.581 58.1644C29.6265 58.1292 29.6787 58.1037 29.7344 58.0894L48.689 53.2164C49.1937 53.4718 49.0609 53.9942 48.703 54.0863Z" fill="#F2F2F2"/>
<path d="M49.2577 56.2371L30.5235 61.0535C30.4162 61.0834 30.3015 61.0715 30.2026 61.0202C30.1037 60.9689 30.028 60.8821 29.9908 60.7772C29.9735 60.7224 29.9676 60.6646 29.9733 60.6075C29.9791 60.5503 29.9965 60.4949 30.0244 60.4446C30.0523 60.3944 30.0902 60.3504 30.1357 60.3152C30.1812 60.2801 30.2334 60.2546 30.2891 60.2402L49.2437 55.3672C49.7484 55.6227 49.6156 56.1451 49.2577 56.2371Z" fill="#F2F2F2"/>
<path d="M49.8114 58.387L31.0772 63.2033C30.9699 63.2333 30.8552 63.2214 30.7563 63.1701C30.6574 63.1188 30.5817 63.0319 30.5445 62.927C30.5272 62.8722 30.5213 62.8145 30.527 62.7573C30.5328 62.7001 30.5502 62.6447 30.5781 62.5945C30.606 62.5442 30.6439 62.5002 30.6894 62.4651C30.7349 62.4299 30.7871 62.4044 30.8428 62.3901L49.7974 57.5171C50.3021 57.7725 50.1693 58.295 49.8114 58.387Z" fill="#F2F2F2"/>
<path d="M30.0264 78.1713C29.9583 78.189 29.8863 78.184 29.8213 78.1572L29.8173 78.1556L28.9654 77.7949C28.9259 77.7782 28.89 77.7538 28.8599 77.7233C28.8298 77.6927 28.806 77.6565 28.7899 77.6167C28.7738 77.577 28.7657 77.5345 28.7661 77.4916C28.7665 77.4487 28.7754 77.4063 28.7922 77.3669C28.809 77.3274 28.8334 77.2917 28.864 77.2616C28.8947 77.2316 28.931 77.2079 28.9708 77.1919C29.0106 77.1759 29.0532 77.1679 29.0961 77.1684C29.1391 77.1688 29.1815 77.1777 29.221 77.1945L29.773 77.429L30.4963 75.7296C30.5131 75.6902 30.5375 75.6545 30.5681 75.6245C30.5986 75.5945 30.6349 75.5708 30.6746 75.5548C30.7144 75.5388 30.7569 75.5307 30.7998 75.5311C30.8426 75.5315 30.885 75.5404 30.9245 75.5571L30.9202 75.5683L30.9247 75.5571C31.0044 75.5911 31.0673 75.6551 31.0996 75.7353C31.132 75.8155 31.1312 75.9052 31.0974 75.9848L30.2464 77.983C30.2267 78.0291 30.1966 78.07 30.1584 78.1026C30.1203 78.1352 30.0752 78.1585 30.0266 78.1709L30.0264 78.1713Z" fill="white"/>
<path d="M82.4283 99.7159H40.8915C39.4829 99.7144 38.1325 99.1548 37.1365 98.1601C36.1405 97.1653 35.5802 95.8166 35.5786 94.4098V45.6902C35.5802 44.2834 36.1405 42.9347 37.1365 41.94C38.1325 40.9452 39.4829 40.3857 40.8915 40.3841H79.5347L87.7411 46.9169V94.4098C87.7395 95.8166 87.1793 97.1653 86.1833 98.1601C85.1873 99.1548 83.8368 99.7144 82.4283 99.7159Z" fill="#E6E6E6"/>
<path d="M40.8913 41.9116C39.8882 41.9128 38.9266 42.3112 38.2173 43.0196C37.508 43.728 37.109 44.6884 37.1079 45.6902V94.4099C37.109 95.4117 37.508 96.3721 38.2173 97.0805C38.9266 97.7889 39.8882 98.1873 40.8913 98.1884H82.4281C83.4312 98.1873 84.3929 97.7889 85.1021 97.0805C85.8114 96.3721 86.2104 95.4117 86.2115 94.4099V47.6528L78.9995 41.9116H40.8913Z" fill="white"/>
<path d="M74.3501 56.0779H55.4389C55.2043 56.0779 54.9792 55.9848 54.8133 55.8191C54.6474 55.6534 54.5542 55.4287 54.5542 55.1943C54.5542 54.96 54.6474 54.7352 54.8133 54.5695C54.9792 54.4038 55.2043 54.3107 55.4389 54.3107H74.3501C74.5847 54.3107 74.8097 54.4038 74.9757 54.5695C75.1416 54.7352 75.2348 54.96 75.2348 55.1943C75.2348 55.4287 75.1416 55.6534 74.9757 55.8191C74.8097 55.9848 74.5847 56.0779 74.3501 56.0779Z" fill="#096191"/>
<path d="M77.9994 59.0601H55.4387C55.2043 59.0598 54.9795 58.9666 54.8139 58.8009C54.6482 58.6352 54.5552 58.4107 54.5552 58.1765C54.5552 57.9424 54.6482 57.7178 54.8139 57.5521C54.9795 57.3865 55.2043 57.2932 55.4387 57.2929H77.9994C78.1156 57.2928 78.2308 57.3155 78.3383 57.3598C78.4458 57.4042 78.5434 57.4692 78.6257 57.5513C78.708 57.6334 78.7733 57.7308 78.8178 57.8381C78.8624 57.9454 78.8853 58.0604 78.8853 58.1765C78.8853 58.2927 78.8624 58.4076 78.8178 58.5149C78.7733 58.6222 78.708 58.7197 78.6257 58.8017C78.5434 58.8838 78.4458 58.9489 78.3383 58.9932C78.2308 59.0375 78.1156 59.0603 77.9994 59.0601Z" fill="#096191"/>
<path d="M74.3494 67.6748H55.4389C55.2042 67.6748 54.9792 67.7679 54.8133 67.9336C54.6474 68.0993 54.5542 68.324 54.5542 68.5584C54.5542 68.7927 54.6474 69.0174 54.8133 69.1831C54.9792 69.3488 55.2042 69.4419 55.4389 69.4419H74.3494C74.584 69.4419 74.809 69.3488 74.9749 69.1831C75.1409 69.0174 75.2341 68.7927 75.2341 68.5584C75.2341 68.324 75.1409 68.0993 74.9749 67.9336C74.809 67.7679 74.584 67.6748 74.3494 67.6748Z" fill="#CCCCCC"/>
<path d="M77.9991 70.6575H55.4389C55.2042 70.6575 54.9792 70.7506 54.8133 70.9163C54.6474 71.082 54.5542 71.3067 54.5542 71.541C54.5542 71.7754 54.6474 72.0001 54.8133 72.1658C54.9792 72.3315 55.2042 72.4246 55.4389 72.4246H77.9991C78.2338 72.4246 78.4588 72.3315 78.6247 72.1658C78.7906 72.0001 78.8838 71.7754 78.8838 71.541C78.8838 71.3067 78.7906 71.082 78.6247 70.9163C78.4588 70.7506 78.2338 70.6575 77.9991 70.6575Z" fill="#CCCCCC"/>
<path d="M74.3501 82.8071H55.4389C55.2043 82.8071 54.9792 82.714 54.8133 82.5483C54.6474 82.3826 54.5542 82.1578 54.5542 81.9235C54.5542 81.6891 54.6474 81.4644 54.8133 81.2987C54.9792 81.1329 55.2043 81.0399 55.4389 81.0399H74.3501C74.5847 81.0399 74.8097 81.1329 74.9757 81.2987C75.1416 81.4644 75.2348 81.6891 75.2348 81.9235C75.2348 82.1578 75.1416 82.3826 74.9757 82.5483C74.8097 82.714 74.5847 82.8071 74.3501 82.8071Z" fill="#CCCCCC"/>
<path d="M77.9994 85.7893H55.4387C55.2043 85.7889 54.9795 85.6957 54.8139 85.53C54.6482 85.3644 54.5552 85.1398 54.5552 84.9056C54.5552 84.6715 54.6482 84.4469 54.8139 84.2813C54.9795 84.1156 55.2043 84.0224 55.4387 84.022H77.9994C78.1156 84.0219 78.2308 84.0446 78.3383 84.089C78.4458 84.1333 78.5434 84.1983 78.6257 84.2804C78.708 84.3625 78.7733 84.4599 78.8178 84.5672C78.8624 84.6745 78.8853 84.7895 78.8853 84.9056C78.8853 85.0218 78.8624 85.1368 78.8178 85.2441C78.7733 85.3513 78.708 85.4488 78.6257 85.5309C78.5434 85.6129 78.4458 85.678 78.3383 85.7223C78.2308 85.7667 78.1156 85.7894 77.9994 85.7893Z" fill="#CCCCCC"/>
<path d="M47.5631 59.8085C49.2901 59.8085 50.6901 58.4103 50.6901 56.6854C50.6901 54.9606 49.2901 53.5624 47.5631 53.5624C45.8361 53.5624 44.436 54.9606 44.436 56.6854C44.436 58.4103 45.8361 59.8085 47.5631 59.8085Z" fill="#096191"/>
<path d="M47.2538 57.8768C47.1835 57.8769 47.115 57.8542 47.0587 57.8121L47.0552 57.8095L46.3203 57.248C46.2862 57.222 46.2575 57.1895 46.236 57.1524C46.2144 57.1153 46.2004 57.0743 46.1948 57.0318C46.1891 56.9893 46.1919 56.946 46.2029 56.9046C46.214 56.8632 46.2332 56.8243 46.2593 56.7903C46.2854 56.7562 46.318 56.7277 46.3552 56.7062C46.3924 56.6848 46.4335 56.6709 46.4761 56.6653C46.5186 56.6597 46.5619 56.6626 46.6034 56.6738C46.6449 56.6849 46.6837 56.7041 46.7177 56.7303L47.1937 57.0949L48.3186 55.6293C48.3447 55.5953 48.3772 55.5668 48.4143 55.5453C48.4514 55.5239 48.4924 55.51 48.5349 55.5044C48.5774 55.4988 48.6206 55.5016 48.662 55.5127C48.7034 55.5237 48.7422 55.5428 48.7763 55.5689L48.7694 55.5786L48.7765 55.5689C48.8452 55.6216 48.8901 55.6994 48.9014 55.7851C48.9127 55.8708 48.8895 55.9575 48.8369 56.0261L47.5139 57.7492C47.4833 57.7889 47.4439 57.8211 47.3989 57.8431C47.3538 57.8652 47.3043 57.8766 47.2541 57.8764L47.2538 57.8768Z" fill="white"/>
<path d="M51.012 70.0497C51.0122 70.4599 50.9314 70.8661 50.7744 71.2451C50.6173 71.6241 50.3871 71.9685 50.0967 72.2586C49.8064 72.5487 49.4617 72.7789 49.0823 72.9359C48.7029 73.0929 48.2962 73.1738 47.8855 73.1739C47.8586 73.1744 47.8317 73.1733 47.805 73.1706C47.1901 73.1549 46.5936 72.9584 46.09 72.6057C45.5864 72.2531 45.1981 71.7599 44.9738 71.188C44.7494 70.616 44.6989 69.9907 44.8286 69.3902C44.9583 68.7897 45.2625 68.2408 45.703 67.8121C46.1435 67.3834 46.7008 67.094 47.3052 66.9801C47.9096 66.8662 48.5342 66.9328 49.1009 67.1716C49.6675 67.4104 50.1511 67.8109 50.491 68.3228C50.831 68.8347 51.0122 69.4354 51.012 70.0497Z" fill="#CCCCCC"/>
<path d="M47.5631 86.5376C49.2901 86.5376 50.6901 85.1394 50.6901 83.4146C50.6901 81.6897 49.2901 80.2915 47.5631 80.2915C45.8361 80.2915 44.436 81.6897 44.436 83.4146C44.436 85.1394 45.8361 86.5376 47.5631 86.5376Z" fill="#CCCCCC"/>
<path d="M87.5821 47.1271H81.1537C80.6845 47.1271 80.2344 46.9409 79.9025 46.6095C79.5707 46.2781 79.3843 45.8286 79.3843 45.3599V40.618C79.3843 40.5973 79.3901 40.5769 79.4012 40.5593C79.4122 40.5417 79.428 40.5276 79.4467 40.5186C79.4654 40.5095 79.4863 40.506 79.507 40.5082C79.5277 40.5105 79.5472 40.5186 79.5635 40.5314L87.6508 46.9301C87.6688 46.9443 87.6819 46.9638 87.6883 46.9858C87.6947 47.0079 87.6941 47.0313 87.6866 47.053C87.679 47.0746 87.6649 47.0934 87.6462 47.1067C87.6275 47.12 87.6051 47.1271 87.5821 47.1271Z" fill="#CCCCCC"/>
<path d="M51.0121 70.0497C51.0122 70.4598 50.9315 70.866 50.7744 71.245C50.6174 71.6241 50.3871 71.9684 50.0968 72.2586C49.8065 72.5487 49.4617 72.7788 49.0823 72.9359C48.7029 73.0929 48.2963 73.1738 47.8856 73.1738C47.8587 73.1744 47.8318 73.1733 47.8051 73.1706C47.4011 72.1643 47.2453 71.0757 47.351 69.9966C47.4566 68.9175 47.8205 67.8797 48.412 66.9705C49.1394 67.0951 49.7993 67.4724 50.2751 68.0358C50.7509 68.5993 51.0119 69.3126 51.0121 70.0497Z" fill="#096191"/>
<path d="M54.5542 68.5592C54.5546 68.3247 54.648 68.1 54.814 67.9343C54.98 67.7685 55.205 67.6752 55.4397 67.6748H60.152C60.4272 68.2339 60.6229 68.8287 60.7332 69.4419H55.4397C55.2051 69.4418 54.9802 69.3489 54.8142 69.1834C54.6482 69.0179 54.5547 68.7934 54.5542 68.5592Z" fill="#096191"/>
<path d="M60.8419 70.6575C60.8422 71.2543 60.7632 71.8485 60.6068 72.4246H55.4389C55.2042 72.4246 54.9792 72.3315 54.8133 72.1658C54.6474 72.0001 54.5542 71.7754 54.5542 71.541C54.5542 71.3067 54.6474 71.082 54.8133 70.9163C54.9792 70.7506 55.2042 70.6575 55.4389 70.6575H60.8419Z" fill="#096191"/>
<path d="M72.502 81.5555C72.3686 81.7739 72.1538 81.9305 71.9048 81.9907C71.6558 82.051 71.3931 82.01 71.1743 81.8767L59.9039 75.0109C59.7956 74.9449 59.7013 74.8583 59.6266 74.756C59.5518 74.6536 59.4979 74.5376 59.4681 74.4144C59.4382 74.2913 59.4329 74.1635 59.4525 74.0383C59.4721 73.9132 59.5162 73.7931 59.5822 73.6849C59.6483 73.5767 59.735 73.4826 59.8375 73.408C59.94 73.3333 60.0562 73.2795 60.1794 73.2497C60.3027 73.2198 60.4307 73.2145 60.556 73.2341C60.6814 73.2537 60.8016 73.2977 60.9099 73.3637L72.1804 80.2295C72.3991 80.3627 72.5558 80.5773 72.6162 80.8259C72.6765 81.0746 72.6354 81.337 72.502 81.5555Z" fill="#3F3D56"/>
<path d="M61.2309 74.6896C60.435 75.9928 59.27 77.031 57.8834 77.6729C56.4967 78.3149 54.9505 78.5317 53.4404 78.296C51.9303 78.0604 50.5242 77.3827 49.3997 76.3489C48.2752 75.315 47.4829 73.9714 47.123 72.4878C46.7632 71.0043 46.8518 69.4475 47.3779 68.0143C47.9039 66.581 48.8437 65.3358 50.0784 64.436C51.313 63.5362 52.7871 63.0223 54.3142 62.9592C55.8413 62.8962 57.3528 63.2868 58.6577 64.0816C60.4056 65.1492 61.6581 66.8655 62.1405 68.8542C62.623 70.8429 62.2958 72.9415 61.2309 74.6896ZM49.6855 67.6563C49.0886 68.6337 48.7953 69.7659 48.8427 70.9098C48.89 72.0537 49.276 73.1578 49.9517 74.0827C50.6274 75.0075 51.5625 75.7114 52.6388 76.1054C53.715 76.4995 54.8841 76.5659 55.9982 76.2963C57.1123 76.0268 58.1213 75.4333 58.8977 74.591C59.674 73.7487 60.1829 72.6954 60.3599 71.5643C60.5369 70.4332 60.374 69.275 59.892 68.2363C59.4099 67.1977 58.6303 66.325 57.6516 65.7289C56.3389 64.9312 54.7629 64.6862 53.2695 65.0475C51.7761 65.4088 50.4872 66.3471 49.6855 67.6563Z" fill="#3F3D56"/>
</g>
</svg>
