<svg width="97" height="50" viewBox="0 0 97 50" fill="none" xmlns="http://www.w3.org/2000/svg">
<path d="M0.955609 26.9728H17.9099C19.1121 26.9728 20.1602 26.6953 21.0234 26.1096C21.8865 25.5239 22.318 24.5067 22.318 23.027C22.318 21.5782 21.8865 20.561 21.0234 19.9444C20.1602 19.3587 19.1121 19.0505 17.9099 19.0505H10.0185C8.50798 19.0505 7.12081 18.8963 5.88777 18.5573C4.65473 18.2182 3.60665 17.6941 2.7127 16.9543C1.84957 16.2145 1.17139 15.2281 0.709004 13.995C0.246614 12.762 0 11.2823 0 9.52524C0 7.73733 0.246614 6.22685 0.709004 4.99381C1.17139 3.76077 1.84957 2.77433 2.7127 2.03451C3.57582 1.29469 4.62391 0.770651 5.88777 0.46239C7.12081 0.15413 8.50798 0 10.0185 0H27.8976V5.5795H10.9432C9.74102 5.5795 8.69295 5.85694 7.82982 6.44264C6.96669 7.02833 6.53512 8.04559 6.53512 9.52524C6.53512 10.9741 6.96669 11.9913 7.82982 12.6078C8.69295 13.1935 9.74102 13.5018 10.9432 13.5018H18.8347C20.3452 13.5018 21.7323 13.6559 22.9654 13.995C24.1984 14.3341 25.2465 14.8581 26.1405 15.598C27.0036 16.3378 27.6818 17.3242 28.1442 18.5573C28.6065 19.7903 28.8532 21.27 28.8532 23.027C28.8532 24.8458 28.6065 26.3871 28.1442 27.5893C27.6818 28.7915 27.0036 29.7779 26.1405 30.5178C25.2773 31.2576 24.2293 31.7816 22.9654 32.0899C21.7323 32.3981 20.3452 32.5523 18.8347 32.5523H0.955609V26.9728Z" fill="#FE7C4B"/>
<path d="M68.1226 26.9728H85.0769C86.2791 26.9728 87.3272 26.6953 88.1903 26.1096C89.0535 25.5239 89.485 24.5067 89.485 23.027C89.485 21.5782 89.0535 20.561 88.1903 19.9444C87.3272 19.3587 86.2791 19.0505 85.0769 19.0505H77.1854C75.675 19.0505 74.2878 18.8963 73.0548 18.5573C71.8217 18.2182 70.7736 17.6941 69.8797 16.9543C69.0165 16.2145 68.3384 15.2281 67.876 13.995C67.4136 12.762 67.167 11.2823 67.167 9.52524C67.167 7.73733 67.4136 6.22685 67.876 4.99381C68.3384 3.76077 69.0165 2.77433 69.8797 2.03451C70.7428 1.29469 71.7909 0.770651 73.0548 0.46239C74.2878 0.15413 75.675 0 77.1854 0H95.0645V5.5795H78.1102C76.908 5.5795 75.8599 5.85694 74.9968 6.44264C74.1337 7.02833 73.7021 8.04559 73.7021 9.52524C73.7021 10.9741 74.1337 11.9913 74.9968 12.6078C75.8599 13.1935 76.908 13.5018 78.1102 13.5018H86.0017C87.5122 13.5018 88.8993 13.6559 90.1324 13.995C91.3654 14.3341 92.4135 14.8581 93.3075 15.598C94.1706 16.3378 94.8488 17.3242 95.3111 18.5573C95.7735 19.7903 96.0201 21.27 96.0201 23.027C96.0201 24.8458 95.7735 26.3871 95.3111 27.5893C94.8488 28.7915 94.1706 29.7779 93.3075 30.5178C92.4443 31.2576 91.3962 31.7816 90.1324 32.0899C88.8993 32.3981 87.5122 32.5523 86.0017 32.5523H68.1226V26.9728Z" fill="#FE7C4B"/>
<path d="M0.0302734 34.8643H8.81569C9.46304 34.8643 10.0796 34.9567 10.6653 35.1109C11.2509 35.265 11.7442 35.5116 12.1757 35.8507C12.6073 36.1898 12.9464 36.6522 13.193 37.2379C13.4396 37.8236 13.5629 38.5017 13.5629 39.334C13.5629 40.043 13.4704 40.6904 13.3163 41.2144C13.1622 41.7385 12.9156 42.2009 12.6073 42.5708C12.299 42.9407 11.9291 43.2181 11.5284 43.4339C11.0968 43.6497 10.6652 43.8038 10.172 43.8963L13.5321 49.7224H10.1104L6.99696 43.9579H2.98957V49.6607H0.0302734V34.8643ZM8.81569 41.4302C9.30891 41.4302 9.74047 41.2761 10.0796 40.9678C10.4186 40.6595 10.6036 40.1047 10.6036 39.3032C10.6036 38.5942 10.4186 38.101 10.0796 37.8236C9.74047 37.5461 9.30891 37.392 8.81569 37.392H2.98957V41.3994H8.81569V41.4302Z" fill="white"/>
<path d="M37.7017 34.8643H44.8841C45.7473 34.8643 46.5796 34.9876 47.3502 35.265C48.1209 35.5116 48.799 35.9432 49.3847 36.5289C49.9704 37.1146 50.4328 37.8544 50.7411 38.81C51.0802 39.7656 51.2343 40.9062 51.2343 42.2933C51.2343 43.6497 51.0802 44.8211 50.7411 45.7767C50.402 46.7323 49.9396 47.4721 49.3847 48.0578C48.799 48.6435 48.1209 49.0442 47.3502 49.3217C46.5796 49.5683 45.7473 49.7224 44.8841 49.7224H37.7017V34.8643ZM44.4834 47.133C45.0074 47.133 45.5007 47.0405 45.963 46.8864C46.4254 46.7323 46.8262 46.4549 47.1653 46.0849C47.5043 45.715 47.7818 45.2218 47.9667 44.6053C48.1517 43.9888 48.275 43.1873 48.275 42.2625C48.275 41.3069 48.1825 40.5363 47.9667 39.9197C47.7818 39.3032 47.5043 38.81 47.1653 38.4401C46.8262 38.0702 46.4254 37.7927 45.963 37.6386C45.5007 37.4845 45.0074 37.392 44.4834 37.392H40.661V47.133H44.4834Z" fill="white"/>
<path d="M56.3179 34.8643H59.2772V49.6607H56.3179V34.8643Z" fill="white"/>
<path d="M64.7646 34.8643H67.7239V43.5264C67.7239 44.2662 67.8164 44.9135 68.0322 45.4068C68.2172 45.9 68.4946 46.3007 68.8337 46.609C69.1728 46.9172 69.5735 47.133 70.0359 47.2563C70.4983 47.3796 70.9915 47.4413 71.5155 47.4413C72.0396 47.4413 72.5328 47.3796 72.9952 47.2563C73.4576 47.133 73.8583 46.9172 74.1974 46.609C74.5365 46.3007 74.8139 45.9 75.0297 45.4068C75.2455 44.9135 75.338 44.297 75.338 43.5264V34.8643H78.2973V43.5264C78.2973 44.7594 78.1123 45.7767 77.7424 46.609C77.3725 47.4413 76.9101 48.0886 76.2936 48.6127C75.677 49.1059 74.9681 49.4758 74.1357 49.6916C73.3034 49.9074 72.4403 49.9998 71.5155 49.9998C70.5908 49.9998 69.6968 49.9074 68.8953 49.6916C68.063 49.4758 67.354 49.1367 66.7375 48.6127C66.121 48.1195 65.6278 47.4413 65.2887 46.609C64.9496 45.7767 64.7646 44.7594 64.7646 43.5264V34.8643Z" fill="white"/>
<path d="M83.9389 47.1331H91.6762C92.2311 47.1331 92.6935 47.0098 93.0942 46.7323C93.4949 46.4857 93.6799 45.9925 93.6799 45.3143C93.6799 44.667 93.4949 44.1738 93.0942 43.9272C92.6935 43.6497 92.2311 43.5264 91.6762 43.5264H88.0696C87.3914 43.5264 86.7441 43.4648 86.1892 43.3107C85.6343 43.1565 85.1411 42.9099 84.7404 42.5708C84.3396 42.2317 84.0314 41.7694 83.8156 41.2145C83.5998 40.6596 83.5073 39.9814 83.5073 39.18C83.5073 38.3477 83.5998 37.6695 83.8156 37.1146C84.0314 36.5597 84.3396 36.0974 84.7404 35.7583C85.1411 35.4192 85.6035 35.1726 86.1892 35.0493C86.7441 34.8952 87.3914 34.8335 88.0696 34.8335H96.2076V37.3612H88.4703C87.9154 37.3612 87.4531 37.4845 87.0523 37.762C86.6516 38.0086 86.4666 38.5018 86.4666 39.18C86.4666 39.8581 86.6516 40.3205 87.0523 40.5671C87.4531 40.8446 87.9154 40.9679 88.4703 40.9679H92.077C92.7551 40.9679 93.4025 41.0295 93.9573 41.1836C94.5122 41.3378 95.0054 41.5844 95.4062 41.9235C95.8069 42.2626 96.1152 42.7249 96.3309 43.2798C96.5467 43.8347 96.6392 44.5129 96.6392 45.3143C96.6392 46.1466 96.5467 46.8248 96.3309 47.3797C96.1152 47.9346 95.8069 48.3661 95.4062 48.7052C95.0054 49.0443 94.543 49.2909 93.9573 49.4142C93.4025 49.5683 92.7551 49.63 92.077 49.63H83.9389V47.1331Z" fill="white"/>
<path d="M51.5419 0H44.5136L30.0254 32.5523H37.2695L40.013 26.048L42.3866 20.4685L47.997 7.18246L53.669 20.4685H53.6381L56.0117 26.048H56.0425L58.7861 32.5523H66.0302L51.5419 0Z" fill="#FE7C4B"/>
<path d="M27.0633 34.8643H23.8883L17.2915 49.6607H20.5899L21.8229 46.7015L25.4604 38.1318L28.0498 44.1737L29.1287 46.7015L30.3617 49.6607H33.6601L27.0633 34.8643Z" fill="white"/>
<path d="M40.9351 32.5519L47.9942 15.8442L55.0842 32.5519H40.9351Z" fill="white"/>
</svg>
