<svg width="177" height="75" viewBox="0 0 177 75" fill="none" xmlns="http://www.w3.org/2000/svg">
<path d="M76.4616 33.5441C76.7654 33.5441 76.9173 33.6953 76.9173 33.9979V36.0172C76.9173 36.3197 76.7654 36.4718 76.4616 36.4718H65.03C64.5054 36.4718 64.1424 36.5686 63.9401 36.7621C63.7379 36.9556 63.6363 37.237 63.6363 37.6072V37.9854C63.6363 38.3223 63.7379 38.587 63.9401 38.7805C64.1432 38.9748 64.5063 39.0707 65.03 39.0707H73.5725C74.9919 39.0707 76.0058 39.3653 76.6144 39.9537C77.2229 40.5429 77.5267 41.3758 77.5267 42.4532V43.8665C77.5267 44.4214 77.4596 44.9183 77.3236 45.3563C77.1885 45.7943 76.965 46.1637 76.6523 46.4662C76.3397 46.7688 75.9308 47.0009 75.4229 47.161C74.9159 47.3211 74.2906 47.4011 73.5478 47.4011H60.5688C60.2641 47.4011 60.1131 47.2498 60.1131 46.9464V44.9271C60.1131 44.6237 60.265 44.4733 60.5688 44.4733H72.5833C73.1071 44.4733 73.4745 44.381 73.6856 44.1954C73.8967 44.0107 74.0027 43.6985 74.0027 43.2614V42.5798C74.0027 42.2438 73.8967 41.9826 73.6856 41.798C73.4745 41.6133 73.1071 41.52 72.5833 41.52H64.0673C62.6471 41.52 61.634 41.2298 61.0255 40.6494C60.4169 40.0689 60.1131 39.2237 60.1131 38.1129V37.0022C60.1131 36.4806 60.1802 36.0057 60.3154 35.5765C60.4505 35.1474 60.6739 34.7815 60.9866 34.4781C61.2993 34.1755 61.71 33.9442 62.2161 33.7842C62.723 33.6241 63.3483 33.5441 64.092 33.5441H76.4616Z" fill="white" fill-opacity="0.4"/>
<path d="M93.12 33.5441C94.2523 33.5441 95.2062 33.6408 95.9843 33.8343C96.7616 34.0278 97.3825 34.3312 97.847 34.7428C98.3116 35.1553 98.6455 35.6856 98.8486 36.3329C99.0509 36.9811 99.1524 37.7594 99.1524 38.667V46.8453C99.1524 47.2155 98.9661 47.4002 98.5943 47.4002H96.1106C95.7388 47.4002 95.5533 47.2155 95.5533 46.8453V39.5254C95.5533 39.0039 95.5189 38.5624 95.4517 38.2C95.3837 37.8386 95.253 37.5527 95.0587 37.3425C94.8644 37.1323 94.5977 36.9811 94.2603 36.8878C93.922 36.7955 93.483 36.7489 92.9425 36.7489H86.2C85.6594 36.7489 85.2116 36.7955 84.8566 36.8878C84.5015 36.9802 84.2189 37.1323 84.0078 37.3425C83.7967 37.5527 83.6492 37.8386 83.5644 38.2C83.4796 38.5624 83.4372 39.0039 83.4372 39.5254V46.8453C83.4372 47.2155 83.2509 47.4002 82.8791 47.4002H80.3954C80.0068 47.4002 79.8125 47.2155 79.8125 46.8453V38.667C79.8125 37.7594 79.9141 36.9811 80.1172 36.3329C80.3195 35.6856 80.6533 35.1553 81.1179 34.7428C81.5825 34.3312 82.199 34.0278 82.9683 33.8343C83.7367 33.6408 84.6958 33.5441 85.8449 33.5441H93.12Z" fill="white" fill-opacity="0.4"/>
<path d="M114.814 33.5441C115.946 33.5441 116.901 33.6408 117.678 33.8343C118.455 34.0278 119.076 34.3312 119.542 34.7428C120.006 35.1553 120.34 35.6847 120.542 36.3329C120.745 36.9802 120.847 37.7594 120.847 38.667V42.3019C120.847 43.2104 120.745 43.9887 120.542 44.6369C120.34 45.2842 120.006 45.8145 119.542 46.227C119.076 46.6395 118.455 46.9385 117.678 47.1232C116.901 47.3088 115.946 47.4011 114.814 47.4011H107.64C106.491 47.4011 105.532 47.3088 104.764 47.1232C103.994 46.9385 103.378 46.6395 102.913 46.227C102.449 45.8145 102.115 45.2851 101.912 44.6369C101.708 43.9887 101.607 43.2104 101.607 42.3019V38.667C101.607 37.7594 101.708 36.9802 101.912 36.3329C102.115 35.6847 102.448 35.1544 102.913 34.7428C103.378 34.3312 103.994 34.0278 104.764 33.8343C105.532 33.6408 106.491 33.5441 107.64 33.5441H114.814ZM105.233 41.6704C105.233 42.2095 105.275 42.6546 105.359 43.0081C105.444 43.3617 105.591 43.6431 105.803 43.8533C106.014 44.0635 106.298 44.2148 106.652 44.3071C107.007 44.3994 107.455 44.4452 107.995 44.4452H114.459C115.016 44.4452 115.473 44.3994 115.828 44.3071C116.183 44.2148 116.465 44.0635 116.676 43.8533C116.888 43.6431 117.035 43.3608 117.12 43.0081C117.205 42.6546 117.247 42.2087 117.247 41.6704V39.2721C117.247 38.7506 117.205 38.3135 117.12 37.9599C117.035 37.6064 116.888 37.3205 116.676 37.1015C116.465 36.8834 116.182 36.7313 115.828 36.6469C115.474 36.5624 115.017 36.5211 114.459 36.5211H107.995C107.454 36.5211 107.006 36.5624 106.652 36.6469C106.298 36.7313 106.014 36.8826 105.803 37.1015C105.592 37.3197 105.444 37.6055 105.359 37.9599C105.275 38.3135 105.233 38.7506 105.233 39.2721V41.6704Z" fill="white" fill-opacity="0.4"/>
<path d="M136.61 33.5441C137.742 33.5441 138.697 33.6408 139.474 33.8343C140.251 34.0278 140.872 34.3312 141.337 34.7428C141.802 35.1553 142.135 35.6856 142.339 36.3329C142.542 36.9811 142.642 37.7594 142.642 38.667V46.8453C142.642 47.2155 142.456 47.4002 142.085 47.4002H139.601C139.23 47.4002 139.044 47.2155 139.044 46.8453V39.5254C139.044 39.0039 139.01 38.5624 138.943 38.2C138.875 37.8386 138.744 37.5527 138.55 37.3425C138.355 37.1323 138.089 36.9811 137.751 36.8878C137.413 36.7955 136.974 36.7489 136.433 36.7489H129.691C129.15 36.7489 128.703 36.7955 128.347 36.8878C127.992 36.9802 127.709 37.1323 127.499 37.3425C127.288 37.5527 127.14 37.8386 127.055 38.2C126.971 38.5624 126.929 39.0039 126.929 39.5254V46.8453C126.929 47.2155 126.743 47.4002 126.372 47.4002H123.888C123.499 47.4002 123.305 47.2155 123.305 46.8453V38.667C123.305 37.7594 123.407 36.9811 123.609 36.3329C123.811 35.6856 124.145 35.1553 124.61 34.7428C125.074 34.3312 125.691 34.0278 126.46 33.8343C127.229 33.6408 128.188 33.5441 129.337 33.5441H136.61Z" fill="white" fill-opacity="0.4"/>
<path d="M158.305 33.5441C159.437 33.5441 160.392 33.6408 161.169 33.8343C161.946 34.0278 162.567 34.3312 163.032 34.7428C163.497 35.1553 163.831 35.6847 164.033 36.3329C164.236 36.9802 164.338 37.7594 164.338 38.667V42.3019C164.338 43.2104 164.236 43.9887 164.033 44.6369C163.831 45.2842 163.497 45.8145 163.032 46.227C162.567 46.6395 161.946 46.9385 161.169 47.1232C160.392 47.3088 159.437 47.4011 158.305 47.4011H151.131C149.982 47.4011 149.023 47.3088 148.254 47.1232C147.485 46.9385 146.869 46.6395 146.404 46.227C145.939 45.8145 145.606 45.2851 145.403 44.6369C145.2 43.9887 145.099 43.2104 145.099 42.3019V38.667C145.099 37.7594 145.2 36.9802 145.403 36.3329C145.606 35.6847 145.939 35.1544 146.404 34.7428C146.869 34.3312 147.485 34.0278 148.254 33.8343C149.023 33.6408 149.982 33.5441 151.131 33.5441H158.305ZM148.723 41.6704C148.723 42.2095 148.766 42.6546 148.85 43.0081C148.934 43.3617 149.082 43.6431 149.294 43.8533C149.505 44.0635 149.788 44.2148 150.143 44.3071C150.498 44.3994 150.945 44.4452 151.486 44.4452H157.95C158.507 44.4452 158.963 44.3994 159.319 44.3071C159.674 44.2148 159.956 44.0635 160.167 43.8533C160.378 43.6431 160.526 43.3608 160.611 43.0081C160.695 42.6546 160.738 42.2087 160.738 41.6704V39.2721C160.738 38.7506 160.695 38.3135 160.611 37.9599C160.526 37.6064 160.378 37.3205 160.167 37.1015C159.955 36.8834 159.673 36.7313 159.319 36.6469C158.963 36.5624 158.508 36.5211 157.95 36.5211H151.486C150.945 36.5211 150.497 36.5624 150.143 36.6469C149.788 36.7313 149.505 36.8826 149.294 37.1015C149.083 37.3197 148.934 37.6055 148.85 37.9599C148.766 38.3135 148.723 38.7506 148.723 39.2721V41.6704Z" fill="white" fill-opacity="0.4"/>
<path d="M60.0831 55.4941V54.3543C60.2906 54.5275 60.5158 54.6577 60.7587 54.7439C61.0025 54.8301 61.248 54.8741 61.4953 54.8741C61.6411 54.8741 61.7674 54.8609 61.876 54.8345C61.9838 54.809 62.0756 54.772 62.148 54.7254C62.2213 54.6797 62.2752 54.6252 62.3105 54.5618C62.3468 54.4985 62.3635 54.4308 62.3635 54.3569C62.3635 54.2575 62.3353 54.1687 62.2779 54.0904C62.2205 54.0122 62.1418 53.94 62.0438 53.8732C61.9449 53.8064 61.8274 53.7422 61.6914 53.6806C61.5554 53.619 61.4088 53.5566 61.2516 53.4924C60.8506 53.3262 60.5529 53.123 60.356 52.8838C60.1599 52.6446 60.061 52.3544 60.061 52.0158C60.061 51.7502 60.1148 51.5206 60.2226 51.3298C60.3295 51.1389 60.4761 50.9815 60.6607 50.8575C60.8453 50.7344 61.059 50.6438 61.3028 50.5857C61.5457 50.5277 61.8036 50.4987 62.0747 50.4987C62.3415 50.4987 62.5782 50.5145 62.7839 50.547C62.9906 50.5787 63.1805 50.6279 63.3545 50.6948V51.7589C63.2688 51.7 63.1752 51.6481 63.0736 51.6024C62.9721 51.5567 62.8679 51.5197 62.761 51.4898C62.6541 51.4599 62.5472 51.4379 62.4413 51.4239C62.3353 51.4098 62.2355 51.4028 62.1392 51.4028C62.0076 51.4028 61.8884 51.4151 61.7815 51.4397C61.6737 51.4652 61.5828 51.4995 61.5095 51.5452C61.4353 51.5901 61.3787 51.6446 61.3381 51.7071C61.2975 51.7704 61.2772 51.8407 61.2772 51.919C61.2772 52.0043 61.3001 52.0808 61.3443 52.1486C61.3893 52.2163 61.4538 52.2805 61.5377 52.3412C61.6207 52.4018 61.7223 52.4608 61.8416 52.5197C61.9608 52.5777 62.095 52.6375 62.2461 52.6991C62.4501 52.7844 62.6347 52.875 62.7981 52.9717C62.9615 53.0676 63.101 53.1767 63.2185 53.2972C63.3351 53.4176 63.4243 53.5566 63.4861 53.7114C63.5479 53.867 63.5789 54.0473 63.5789 54.254C63.5789 54.539 63.5241 54.7782 63.4163 54.9717C63.3077 55.1652 63.1602 55.3226 62.9747 55.4422C62.7884 55.5618 62.572 55.6471 62.3264 55.6999C62.0791 55.7518 61.8186 55.7782 61.5448 55.7782C61.263 55.7782 60.9954 55.7544 60.7419 55.7069C60.4893 55.6594 60.2694 55.5882 60.0831 55.4941Z" fill="white" fill-opacity="0.4"/>
<path d="M80.4449 50.584L78.7747 53.8741V55.6894H77.6195V53.8952L75.9926 50.584H77.3121L78.1388 52.4881C78.1529 52.5232 78.1918 52.6622 78.2563 52.9049H78.2704C78.3013 52.7334 78.3384 52.5997 78.3808 52.5021L79.2216 50.584H80.4449Z" fill="white" fill-opacity="0.4"/>
<path d="M92.9435 55.4941V54.3543C93.151 54.5275 93.3763 54.6577 93.6192 54.7439C93.8629 54.8301 94.1076 54.8741 94.3558 54.8741C94.5015 54.8741 94.6278 54.8609 94.7364 54.8345C94.8451 54.809 94.936 54.772 95.0085 54.7254C95.0809 54.6797 95.1357 54.6252 95.171 54.5618C95.2063 54.4985 95.224 54.4308 95.224 54.3569C95.224 54.2575 95.1948 54.1687 95.1383 54.0904C95.0809 54.0122 95.0023 53.94 94.9034 53.8732C94.8044 53.8064 94.687 53.7422 94.551 53.6806C94.4149 53.619 94.2692 53.5566 94.1111 53.4924C93.711 53.3262 93.4125 53.123 93.2155 52.8838C93.0195 52.6446 92.9205 52.3544 92.9205 52.0158C92.9205 51.7502 92.9744 51.5206 93.0813 51.3298C93.1881 51.1389 93.3348 50.9815 93.5193 50.8575C93.7039 50.7344 93.9177 50.6438 94.1615 50.5857C94.4052 50.5277 94.6622 50.4987 94.9334 50.4987C95.2001 50.4987 95.4368 50.5145 95.6435 50.547C95.8493 50.5787 96.0401 50.6279 96.2141 50.6948V51.7589C96.1284 51.7 96.0348 51.6481 95.9332 51.6024C95.8316 51.5567 95.7283 51.5197 95.6205 51.4898C95.5137 51.4599 95.4068 51.4379 95.3008 51.4239C95.1948 51.4098 95.0941 51.4028 94.9987 51.4028C94.868 51.4028 94.7479 51.4151 94.6411 51.4397C94.5333 51.4652 94.4432 51.4995 94.369 51.5452C94.2948 51.5901 94.2383 51.6446 94.1977 51.7071C94.157 51.7704 94.1367 51.8407 94.1367 51.919C94.1367 52.0043 94.1588 52.0808 94.2047 52.1486C94.2498 52.2163 94.3143 52.2805 94.3973 52.3412C94.4803 52.4018 94.5819 52.4608 94.7011 52.5197C94.8203 52.5777 94.9546 52.6375 95.1056 52.6991C95.3105 52.7844 95.4942 52.875 95.6576 52.9717C95.821 53.0676 95.9606 53.1767 96.0772 53.2972C96.1938 53.4176 96.283 53.5566 96.3448 53.7114C96.4075 53.867 96.4384 54.0473 96.4384 54.254C96.4384 54.539 96.3837 54.7782 96.275 54.9717C96.1664 55.1652 96.0198 55.3226 95.8334 55.4422C95.647 55.5618 95.4306 55.6471 95.1842 55.6999C94.9378 55.7518 94.6773 55.7782 94.4035 55.7782C94.1217 55.7782 93.8541 55.7544 93.6006 55.7069C93.3489 55.6594 93.129 55.5882 92.9435 55.4941Z" fill="white" fill-opacity="0.4"/>
<path d="M113.039 51.5206H111.578V55.6894H110.419V51.5206H108.964V50.584H113.039V51.5206Z" fill="white" fill-opacity="0.4"/>
<path d="M128.96 55.6894H125.885V50.584H128.843V51.5206H127.041V52.656H128.718V53.5883H127.041V54.7562H128.96V55.6894Z" fill="white" fill-opacity="0.4"/>
<path d="M147.781 55.6893H146.641V52.6349C146.641 52.3051 146.655 51.9401 146.684 51.5417H146.655C146.596 51.8548 146.542 52.0809 146.494 52.2189L145.293 55.6902H144.349L143.126 52.2541C143.093 52.1618 143.039 51.9243 142.966 51.5417H142.934C142.965 52.0457 142.98 52.4872 142.98 52.8662V55.6893H141.939V50.584H143.631L144.678 53.6103C144.762 53.8521 144.822 54.0957 144.861 54.3402H144.882C144.947 54.057 145.015 53.8117 145.086 53.6032L146.134 50.584H147.782V55.6893H147.781Z" fill="white" fill-opacity="0.4"/>
<path d="M160.866 55.4941V54.3543C161.074 54.5275 161.299 54.6577 161.542 54.7439C161.785 54.8301 162.03 54.8741 162.278 54.8741C162.424 54.8741 162.55 54.8609 162.659 54.8345C162.768 54.809 162.858 54.772 162.931 54.7254C163.003 54.6797 163.058 54.6252 163.093 54.5618C163.129 54.4985 163.146 54.4308 163.146 54.3569C163.146 54.2575 163.118 54.1687 163.061 54.0904C163.003 54.0122 162.925 53.94 162.827 53.8732C162.728 53.8064 162.61 53.7422 162.474 53.6806C162.338 53.619 162.192 53.5566 162.034 53.4924C161.634 53.3262 161.336 53.123 161.139 52.8838C160.942 52.6446 160.844 52.3544 160.844 52.0158C160.844 51.7502 160.898 51.5206 161.005 51.3298C161.112 51.1389 161.258 50.9815 161.443 50.8575C161.627 50.7344 161.841 50.6438 162.085 50.5857C162.329 50.5277 162.586 50.4987 162.857 50.4987C163.123 50.4987 163.36 50.5145 163.567 50.547C163.773 50.5787 163.963 50.6279 164.137 50.6948V51.7589C164.052 51.7 163.958 51.6481 163.857 51.6024C163.755 51.5567 163.652 51.5197 163.544 51.4898C163.437 51.4599 163.33 51.4379 163.224 51.4239C163.118 51.4098 163.017 51.4028 162.922 51.4028C162.791 51.4028 162.672 51.4151 162.564 51.4397C162.458 51.4652 162.366 51.4995 162.292 51.5452C162.218 51.5901 162.162 51.6446 162.121 51.7071C162.08 51.7704 162.06 51.8407 162.06 51.919C162.06 52.0043 162.082 52.0808 162.128 52.1486C162.173 52.2163 162.238 52.2805 162.322 52.3412C162.405 52.4018 162.506 52.4608 162.625 52.5197C162.744 52.5777 162.879 52.6375 163.029 52.6991C163.234 52.7844 163.418 52.875 163.581 52.9717C163.744 53.0676 163.884 53.1767 164.001 53.2972C164.117 53.4176 164.206 53.5566 164.268 53.7114C164.331 53.867 164.362 54.0473 164.362 54.254C164.362 54.539 164.307 54.7782 164.199 54.9717C164.091 55.1652 163.943 55.3226 163.758 55.4422C163.572 55.5618 163.355 55.6471 163.108 55.6999C162.862 55.7518 162.601 55.7782 162.328 55.7782C162.046 55.7782 161.778 55.7544 161.525 55.7069C161.271 55.6594 161.051 55.5882 160.866 55.4941Z" fill="white" fill-opacity="0.4"/>
<path d="M55.8586 23.8918C55.787 23.6394 55.7296 23.4389 55.7084 23.3272C55.681 23.1882 55.6696 23.0589 55.6696 22.9402C55.6705 22.526 55.8082 22.2146 55.9495 21.9983C56.0202 21.891 56.09 21.8092 56.1394 21.7573L56.196 21.7028L56.2057 21.694L56.8946 21.0027C54.6088 20.7283 52.6657 20.9192 50.6785 22.2366L50.7014 17.9633H12.7422V55.7605H50.6997V38.3064C50.9169 37.8931 51.0591 37.6002 51.1236 37.4621C53.2363 35.6328 54.5629 33.8264 55.3587 32.136C56.1651 30.4246 56.423 28.8345 56.423 27.4836C56.423 26.4344 56.2684 25.5276 56.1006 24.8126C56.0176 24.4556 55.931 24.1451 55.8586 23.8918ZM50.7315 37.1701C50.7315 37.1701 46.4664 46.6738 36.0691 54.2126C36.0691 54.2126 39.5843 49.146 41.6519 45.0529C42.5996 43.177 43.5888 39.6107 43.2541 38.7268C43.2541 38.7268 37.9486 37.6011 25.2752 46.0687C25.2752 46.0687 27.266 43.5886 28.3788 42.3951C29.7284 40.9475 30.7883 39.9598 30.7883 39.9598C30.7883 39.9598 21.7608 40.9185 13.8896 40.7267C13.8896 40.7267 31.0479 39.3125 41.2448 31.428C41.2448 31.428 39.3299 26.9392 29.8132 27.94C21.3484 28.8301 14.854 30.8766 13.6767 31.3832C13.6767 31.3832 22.2484 24.5743 34.2576 22.5163C44.0137 20.8435 49.2044 24.2155 49.2044 24.2155C49.2044 24.2155 51.1316 21.1074 55.9045 21.322C55.9045 21.322 54.9709 22.0651 55.2386 23.4195C55.5035 24.773 58.2495 30.7192 50.7315 37.1701Z" fill="white" fill-opacity="0.4"/>
</svg>
