<svg width="118" height="50" viewBox="0 0 118 50" fill="none" xmlns="http://www.w3.org/2000/svg">
<path d="M50.9744 22.3628C51.1769 22.3628 51.2782 22.4636 51.2782 22.6653V24.0115C51.2782 24.2132 51.1769 24.3146 50.9744 24.3146H43.3533C43.0036 24.3146 42.7616 24.3791 42.6267 24.5081C42.4919 24.6371 42.4242 24.8247 42.4242 25.0716V25.3237C42.4242 25.5483 42.4919 25.7247 42.6267 25.8537C42.7621 25.9833 43.0042 26.0472 43.3533 26.0472H49.0483C49.9946 26.0472 50.6705 26.2436 51.0762 26.6359C51.4819 27.0287 51.6845 27.584 51.6845 28.3022V29.2444C51.6845 29.6144 51.6397 29.9456 51.549 30.2376C51.459 30.5296 51.31 30.7759 51.1015 30.9776C50.8931 31.1793 50.6205 31.334 50.2819 31.4407C49.9439 31.5475 49.527 31.6008 49.0319 31.6008H40.3792C40.1761 31.6008 40.0754 31.5 40.0754 31.2977V29.9515C40.0754 29.7492 40.1767 29.649 40.3792 29.649H48.3889C48.738 29.649 48.983 29.5874 49.1237 29.4637C49.2644 29.3406 49.3351 29.1324 49.3351 28.841V28.3866C49.3351 28.1626 49.2644 27.9885 49.1237 27.8654C48.983 27.7423 48.738 27.6801 48.3889 27.6801H42.7115C41.7647 27.6801 41.0893 27.4866 40.6836 27.0997C40.2779 26.7127 40.0754 26.1492 40.0754 25.4087V24.6682C40.0754 24.3205 40.1201 24.0039 40.2102 23.7178C40.3003 23.4316 40.4493 23.1877 40.6577 22.9855C40.8662 22.7838 41.14 22.6296 41.4773 22.5229C41.8153 22.4161 42.2322 22.3628 42.728 22.3628H50.9744V22.3628Z" fill="#929EAE"/>
<path d="M62.0801 22.3628C62.8349 22.3628 63.4708 22.4273 63.9896 22.5563C64.5077 22.6853 64.9217 22.8875 65.2314 23.1619C65.5411 23.4369 65.7637 23.7905 65.8991 24.222C66.034 24.6541 66.1017 25.173 66.1017 25.7781V31.2303C66.1017 31.4771 65.9774 31.6002 65.7295 31.6002H64.0738C63.8259 31.6002 63.7022 31.4771 63.7022 31.2303V26.3503C63.7022 26.0027 63.6793 25.7083 63.6345 25.4668C63.5892 25.2258 63.5021 25.0352 63.3725 24.8951C63.243 24.755 63.0651 24.6541 62.8402 24.592C62.6147 24.5304 62.3221 24.4993 61.9617 24.4993H57.4667C57.1063 24.4993 56.8078 24.5304 56.5711 24.592C56.3344 24.6535 56.146 24.755 56.0052 24.8951C55.8645 25.0352 55.7662 25.2258 55.7097 25.4668C55.6531 25.7083 55.6249 26.0027 55.6249 26.3503V31.2303C55.6249 31.4771 55.5006 31.6002 55.2527 31.6002H53.597C53.3379 31.6002 53.2084 31.4771 53.2084 31.2303V25.7781C53.2084 25.173 53.2761 24.6541 53.4115 24.222C53.5464 23.7905 53.7689 23.4369 54.0786 23.1619C54.3884 22.8875 54.7994 22.6853 55.3122 22.5563C55.8245 22.4273 56.4639 22.3628 57.23 22.3628H62.0801V22.3628Z" fill="#929EAE"/>
<path d="M76.5425 22.3628C77.2974 22.3628 77.9339 22.4273 78.4521 22.5563C78.9702 22.6853 79.3841 22.8875 79.6945 23.1619C80.0042 23.4369 80.2267 23.7899 80.3616 24.222C80.497 24.6535 80.5647 25.173 80.5647 25.7781V28.2013C80.5647 28.807 80.497 29.3259 80.3616 29.758C80.2267 30.1895 80.0042 30.5431 79.6945 30.8181C79.3841 31.0931 78.9702 31.2924 78.4521 31.4155C77.9339 31.5393 77.2974 31.6008 76.5425 31.6008H71.7602C70.9941 31.6008 70.3547 31.5393 69.8424 31.4155C69.3295 31.2924 68.9185 31.0931 68.6088 30.8181C68.2991 30.5431 68.0765 30.1901 67.9411 29.758C67.8057 29.3259 67.738 28.807 67.738 28.2013V25.7781C67.738 25.173 67.8057 24.6535 67.9411 24.222C68.0765 23.7899 68.2985 23.4363 68.6088 23.1619C68.9185 22.8875 69.3295 22.6853 69.8424 22.5563C70.3547 22.4273 70.9941 22.3628 71.7602 22.3628H76.5425ZM70.1551 27.7804C70.1551 28.1398 70.1833 28.4365 70.2393 28.6722C70.2958 28.9079 70.3941 29.0955 70.5354 29.2356C70.6762 29.3757 70.8652 29.4766 71.1013 29.5381C71.338 29.5997 71.6365 29.6302 71.9969 29.6302H76.3058C76.6774 29.6302 76.9818 29.5997 77.2185 29.5381C77.4552 29.4766 77.6436 29.3757 77.7843 29.2356C77.9251 29.0955 78.0234 28.9073 78.0799 28.6722C78.1365 28.4365 78.1647 28.1392 78.1647 27.7804V26.1815C78.1647 25.8338 78.1365 25.5424 78.0799 25.3067C78.0234 25.071 77.9251 24.8804 77.7843 24.7344C77.6436 24.589 77.4546 24.4876 77.2185 24.4313C76.9824 24.375 76.678 24.3475 76.3058 24.3475H71.9969C71.6359 24.3475 71.3374 24.375 71.1013 24.4313C70.8652 24.4876 70.6762 24.5885 70.5354 24.7344C70.3947 24.8799 70.2958 25.0704 70.2393 25.3067C70.1833 25.5424 70.1551 25.8338 70.1551 26.1815V27.7804Z" fill="#929EAE"/>
<path d="M91.0733 22.3628C91.8282 22.3628 92.4647 22.4273 92.9828 22.5563C93.5004 22.6853 93.9149 22.8875 94.2246 23.1619C94.5344 23.4369 94.7569 23.7905 94.8923 24.222C95.0278 24.6541 95.0949 25.173 95.0949 25.7781V31.2303C95.0949 31.4771 94.9707 31.6002 94.7234 31.6002H93.0676C92.8197 31.6002 92.6961 31.4771 92.6961 31.2303V26.3503C92.6961 26.0027 92.6731 25.7083 92.6284 25.4668C92.583 25.2258 92.4959 25.0352 92.3663 24.8951C92.2368 24.755 92.0596 24.6541 91.834 24.592C91.6085 24.5304 91.3159 24.4993 90.9555 24.4993H86.4605C86.1002 24.4993 85.8016 24.5304 85.5649 24.592C85.3282 24.6535 85.1392 24.755 84.9991 24.8951C84.8583 25.0352 84.76 25.2258 84.7035 25.4668C84.647 25.7083 84.6193 26.0027 84.6193 26.3503V31.2303C84.6193 31.4771 84.495 31.6002 84.2477 31.6002H82.592C82.3323 31.6002 82.2034 31.4771 82.2034 31.2303V25.7781C82.2034 25.173 82.2711 24.6541 82.4059 24.222C82.5408 23.7905 82.7633 23.4369 83.0731 23.1619C83.3828 22.8875 83.7938 22.6853 84.3066 22.5563C84.8195 22.4273 85.4583 22.3628 86.2244 22.3628H91.0733V22.3628Z" fill="#929EAE"/>
<path d="M105.536 22.3628C106.291 22.3628 106.928 22.4273 107.446 22.5563C107.964 22.6853 108.378 22.8875 108.688 23.1619C108.998 23.4369 109.221 23.7899 109.355 24.222C109.491 24.6535 109.559 25.173 109.559 25.7781V28.2013C109.559 28.807 109.491 29.3259 109.355 29.758C109.221 30.1895 108.998 30.5431 108.688 30.8181C108.378 31.0931 107.964 31.2924 107.446 31.4155C106.928 31.5393 106.291 31.6008 105.536 31.6008H100.754C99.988 31.6008 99.3485 31.5393 98.8363 31.4155C98.3234 31.2924 97.9124 31.0931 97.6027 30.8181C97.293 30.5431 97.0704 30.1901 96.9356 29.758C96.8001 29.3259 96.7324 28.807 96.7324 28.2013V25.7781C96.7324 25.173 96.8001 24.6535 96.9356 24.222C97.071 23.7899 97.293 23.4363 97.6027 23.1619C97.9124 22.8875 98.3234 22.6853 98.8363 22.5563C99.3485 22.4273 99.988 22.3628 100.754 22.3628H105.536ZM99.1489 27.7804C99.1489 28.1398 99.1772 28.4365 99.2331 28.6722C99.2897 28.9079 99.388 29.0955 99.5293 29.2356C99.67 29.3757 99.8584 29.4766 100.095 29.5381C100.332 29.5997 100.63 29.6302 100.991 29.6302H105.3C105.671 29.6302 105.976 29.5997 106.212 29.5381C106.449 29.4766 106.637 29.3757 106.778 29.2356C106.919 29.0955 107.017 28.9073 107.074 28.6722C107.13 28.4365 107.159 28.1392 107.159 27.7804V26.1815C107.159 25.8338 107.13 25.5424 107.074 25.3067C107.017 25.071 106.919 24.8804 106.778 24.7344C106.637 24.589 106.448 24.4876 106.212 24.4313C105.976 24.375 105.672 24.3475 105.3 24.3475H100.991C100.63 24.3475 100.331 24.375 100.095 24.4313C99.8584 24.4876 99.67 24.5885 99.5293 24.7344C99.3886 24.8799 99.2897 25.0704 99.2331 25.3067C99.1772 25.5424 99.1489 25.8338 99.1489 26.1815V27.7804Z" fill="#929EAE"/>
<path d="M40.0554 36.9961V36.2362C40.1937 36.3517 40.3439 36.4385 40.5058 36.4959C40.6683 36.5534 40.832 36.5827 40.9969 36.5827C41.094 36.5827 41.1782 36.5739 41.2507 36.5563C41.3225 36.5393 41.3837 36.5147 41.432 36.4836C41.4809 36.4531 41.5168 36.4168 41.5404 36.3746C41.5645 36.3323 41.5757 36.2872 41.5757 36.2379C41.5757 36.1717 41.5568 36.1125 41.5186 36.0603C41.4803 36.0081 41.4279 35.96 41.3625 35.9155C41.2966 35.8709 41.2183 35.8281 41.1276 35.7871C41.0369 35.746 40.9392 35.7044 40.8344 35.6616C40.567 35.5508 40.3686 35.4153 40.2373 35.2559C40.1066 35.0964 40.0406 34.9029 40.0406 34.6772C40.0406 34.5001 40.0766 34.3471 40.1484 34.2198C40.2196 34.0926 40.3174 33.9877 40.4405 33.905C40.5635 33.8229 40.706 33.7625 40.8685 33.7238C41.0304 33.6851 41.2024 33.6658 41.3831 33.6658C41.561 33.6658 41.7188 33.6763 41.856 33.698C41.9937 33.7191 42.1203 33.752 42.2363 33.7965V34.506C42.1792 34.4667 42.1168 34.4321 42.0491 34.4016C41.9814 34.3711 41.9119 34.3465 41.8407 34.3266C41.7694 34.3066 41.6982 34.292 41.6275 34.2826C41.5568 34.2732 41.4903 34.2685 41.4261 34.2685C41.3384 34.2685 41.2589 34.2767 41.1877 34.2931C41.1158 34.3101 41.0552 34.333 41.0063 34.3635C40.9568 34.3934 40.9192 34.4297 40.8921 34.4714C40.865 34.5136 40.8514 34.5605 40.8514 34.6127C40.8514 34.6695 40.8668 34.7206 40.8962 34.7657C40.9262 34.8109 40.9692 34.8537 41.0251 34.8941C41.0805 34.9346 41.1482 34.9738 41.2277 35.0131C41.3072 35.0518 41.3967 35.0917 41.4974 35.1327C41.6334 35.1896 41.7565 35.25 41.8654 35.3145C41.9743 35.3784 42.0674 35.4511 42.1457 35.5314C42.2234 35.6118 42.2829 35.7044 42.3241 35.8076C42.3653 35.9114 42.3859 36.0316 42.3859 36.1693C42.3859 36.3593 42.3494 36.5188 42.2776 36.6478C42.2051 36.7768 42.1068 36.8817 41.9832 36.9615C41.8589 37.0412 41.7147 37.0981 41.551 37.1333C41.3861 37.1678 41.2124 37.1854 41.0299 37.1854C40.842 37.1854 40.6636 37.1696 40.4946 37.1379C40.3262 37.1063 40.1796 37.0588 40.0554 36.9961Z" fill="#929EAE"/>
<path d="M53.63 33.7227L52.5165 35.9161V37.1262H51.7463V35.9301L50.6617 33.7227H51.5414L52.0926 34.992C52.102 35.0155 52.1279 35.1081 52.1709 35.2699H52.1803C52.2009 35.1556 52.2256 35.0665 52.2539 35.0014L52.8145 33.7227H53.63Z" fill="#929EAE"/>
<path d="M61.9623 36.9961V36.2362C62.1007 36.3517 62.2508 36.4385 62.4128 36.4959C62.5753 36.5534 62.7384 36.5827 62.9038 36.5827C63.001 36.5827 63.0852 36.5739 63.1576 36.5563C63.23 36.5393 63.2907 36.5147 63.339 36.4836C63.3873 36.4531 63.4238 36.4168 63.4473 36.3746C63.4709 36.3323 63.4827 36.2872 63.4827 36.2379C63.4827 36.1717 63.4632 36.1125 63.4255 36.0603C63.3873 36.0081 63.3349 35.96 63.2689 35.9155C63.203 35.8709 63.1247 35.8281 63.034 35.7871C62.9433 35.746 62.8461 35.7044 62.7407 35.6616C62.474 35.5508 62.275 35.4153 62.1437 35.2559C62.013 35.0964 61.947 34.9029 61.947 34.6772C61.947 34.5001 61.9829 34.3471 62.0542 34.2198C62.1254 34.0926 62.2232 33.9877 62.3462 33.905C62.4693 33.8229 62.6118 33.7625 62.7743 33.7238C62.9368 33.6851 63.1082 33.6658 63.2889 33.6658C63.4668 33.6658 63.6246 33.6763 63.7623 33.698C63.8995 33.7191 64.0267 33.752 64.1427 33.7965V34.506C64.0856 34.4667 64.0232 34.4321 63.9555 34.4016C63.8878 34.3711 63.8189 34.3465 63.747 34.3266C63.6758 34.3066 63.6045 34.292 63.5339 34.2826C63.4632 34.2732 63.3961 34.2685 63.3325 34.2685C63.2454 34.2685 63.1653 34.2767 63.094 34.2931C63.0222 34.3101 62.9621 34.333 62.9127 34.3635C62.8632 34.3934 62.8255 34.4297 62.7984 34.4714C62.7714 34.5136 62.7578 34.5605 62.7578 34.6127C62.7578 34.6695 62.7725 34.7206 62.8032 34.7657C62.8332 34.8109 62.8762 34.8537 62.9315 34.8941C62.9869 34.9346 63.0546 34.9738 63.1341 35.0131C63.2136 35.0518 63.3031 35.0917 63.4038 35.1327C63.5404 35.1896 63.6628 35.25 63.7718 35.3145C63.8807 35.3784 63.9737 35.4511 64.0514 35.5314C64.1292 35.6118 64.1886 35.7044 64.2299 35.8076C64.2717 35.9114 64.2923 36.0316 64.2923 36.1693C64.2923 36.3593 64.2558 36.5188 64.1833 36.6478C64.1109 36.7768 64.0132 36.8817 63.8889 36.9615C63.7647 37.0412 63.6204 37.0981 63.4561 37.1333C63.2919 37.1678 63.1182 37.1854 62.9356 37.1854C62.7478 37.1854 62.5694 37.1696 62.4004 37.1379C62.2326 37.1063 62.086 37.0588 61.9623 36.9961Z" fill="#929EAE"/>
<path d="M75.3596 34.3471H74.3851V37.1262H73.6126V34.3471H72.6428V33.7227H75.3596V34.3471Z" fill="#929EAE"/>
<path d="M85.9736 37.1262H83.9233V33.7227H85.8953V34.3471H84.6941V35.104H85.8117V35.7255H84.6941V36.5041H85.9736V37.1262Z" fill="#929EAE"/>
<path d="M98.5206 37.1262H97.7605V35.0899C97.7605 34.8701 97.7699 34.6268 97.7893 34.3612H97.7699C97.7305 34.5699 97.6945 34.7206 97.6627 34.8126L96.862 37.1268H96.2325L95.4176 34.8361C95.3952 34.7745 95.3593 34.6162 95.3104 34.3612H95.2892C95.3098 34.6971 95.3198 34.9914 95.3198 35.2441V37.1262H94.6262V33.7227H95.7538L96.4521 35.7402C96.5081 35.9014 96.5481 36.0638 96.574 36.2268H96.5882C96.6311 36.038 96.6765 35.8744 96.7242 35.7355L97.4225 33.7227H98.5212V37.1262H98.5206Z" fill="#929EAE"/>
<path d="M107.244 36.9961V36.2362C107.382 36.3517 107.532 36.4385 107.694 36.4959C107.857 36.5534 108.02 36.5827 108.185 36.5827C108.283 36.5827 108.367 36.5739 108.439 36.5563C108.512 36.5393 108.572 36.5147 108.621 36.4836C108.669 36.4531 108.705 36.4168 108.729 36.3746C108.753 36.3323 108.764 36.2872 108.764 36.2379C108.764 36.1717 108.745 36.1125 108.707 36.0603C108.669 36.0081 108.617 35.96 108.551 35.9155C108.485 35.8709 108.407 35.8281 108.316 35.7871C108.226 35.746 108.128 35.7044 108.023 35.6616C107.756 35.5508 107.557 35.4153 107.426 35.2559C107.295 35.0964 107.229 34.9029 107.229 34.6772C107.229 34.5001 107.265 34.3471 107.336 34.2198C107.408 34.0926 107.505 33.9877 107.628 33.905C107.752 33.8229 107.894 33.7625 108.057 33.7238C108.219 33.6851 108.39 33.6658 108.571 33.6658C108.749 33.6658 108.907 33.6763 109.045 33.698C109.182 33.7191 109.309 33.752 109.425 33.7965V34.506C109.368 34.4667 109.305 34.4321 109.238 34.4016C109.17 34.3711 109.101 34.3465 109.029 34.3266C108.958 34.3066 108.887 34.292 108.816 34.2826C108.745 34.2732 108.678 34.2685 108.615 34.2685C108.528 34.2685 108.448 34.2767 108.376 34.2931C108.305 34.3101 108.244 34.333 108.195 34.3635C108.145 34.3934 108.108 34.4297 108.081 34.4714C108.054 34.5136 108.04 34.5605 108.04 34.6127C108.04 34.6695 108.055 34.7206 108.085 34.7657C108.115 34.8109 108.158 34.8537 108.214 34.8941C108.27 34.9346 108.337 34.9738 108.417 35.0131C108.496 35.0518 108.586 35.0917 108.686 35.1327C108.823 35.1896 108.945 35.25 109.054 35.3145C109.163 35.3784 109.256 35.4511 109.334 35.5314C109.411 35.6118 109.471 35.7044 109.512 35.8076C109.554 35.9114 109.575 36.0316 109.575 36.1693C109.575 36.3593 109.538 36.5188 109.466 36.6478C109.394 36.7768 109.295 36.8817 109.172 36.9615C109.048 37.0412 108.903 37.0981 108.739 37.1333C108.575 37.1678 108.401 37.1854 108.218 37.1854C108.031 37.1854 107.852 37.1696 107.683 37.1379C107.514 37.1063 107.368 37.0588 107.244 36.9961Z" fill="#929EAE"/>
<path d="M37.2391 15.928C37.1914 15.7597 37.1531 15.626 37.139 15.5515C37.1207 15.4589 37.1131 15.3727 37.1131 15.2936C37.1137 15.0174 37.2055 14.8098 37.2997 14.6656C37.3468 14.5941 37.3934 14.5396 37.4263 14.505L37.464 14.4686L37.4705 14.4627L37.9298 14.0019C36.4059 13.819 35.1105 13.9462 33.7857 14.8245L33.801 11.9756H8.49487V37.1738H33.7998V25.5377C33.9447 25.2621 34.0395 25.0669 34.0825 24.9748C35.4909 23.7553 36.3753 22.551 36.9058 21.4241C37.4434 20.2831 37.6153 19.2231 37.6153 18.3225C37.6153 17.623 37.5123 17.0185 37.4004 16.5418C37.3451 16.3038 37.2874 16.0968 37.2391 15.928ZM33.821 24.7802C33.821 24.7802 30.9776 31.1159 24.0461 36.1418C24.0461 36.1418 26.3896 32.7641 27.768 30.0353C28.3998 28.7847 29.0593 26.4072 28.8361 25.818C28.8361 25.818 25.2991 25.0675 16.8502 30.7125C16.8502 30.7125 18.1774 29.0591 18.9193 28.2635C19.819 27.2984 20.5256 26.64 20.5256 26.64C20.5256 26.64 14.5073 27.2791 9.25974 27.1512C9.25974 27.1512 20.6987 26.2084 27.4965 20.9521C27.4965 20.9521 26.22 17.9595 19.8755 18.6268C14.2323 19.2201 9.90273 20.5845 9.11784 20.9222C9.11784 20.9222 14.8323 16.3829 22.8384 15.011C29.3425 13.8958 32.803 16.1437 32.803 16.1437C32.803 16.1437 34.0878 14.0717 37.2697 14.2147C37.2697 14.2147 36.6473 14.7102 36.8257 15.6131C37.0024 16.5154 38.833 20.4795 33.821 24.7802Z" fill="#929EAE"/>
</svg>
