<svg width="375" height="152" viewBox="0 0 375 152" fill="none" xmlns="http://www.w3.org/2000/svg">
<g opacity="0.1" clip-path="url(#clip0_811_10526)">
<path d="M166.719 18.0227V69.1406H167.61V18.0227H166.719Z" fill="white"/>
<path d="M196.384 44.2892V69.4122H197.276V43.9214C196.986 44.0535 196.688 44.1763 196.384 44.2892Z" fill="white"/>
<path d="M278.525 30.2205V87.4054H279.416V28.9087C279.126 29.3554 278.828 29.7921 278.525 30.2205Z" fill="white"/>
<path d="M184.269 43.7534V68.0808H185.16V44.1521C184.856 44.0288 184.559 43.8963 184.269 43.7534Z" fill="white"/>
<path d="M266.409 40.9762V82.6667H267.3V40.4885C267.005 40.6556 266.708 40.8182 266.409 40.9762Z" fill="white"/>
<path d="M254.292 44.8107V78.9353H255.183V44.6783C254.888 44.7259 254.591 44.7694 254.292 44.8107Z" fill="white"/>
<path d="M242.176 44.8145V75.4998H243.067V44.9323C242.769 44.896 242.472 44.8575 242.176 44.8145Z" fill="white"/>
<path d="M230.06 40.7359V72.5156H230.951V41.2215C230.651 41.0639 230.355 40.9026 230.06 40.7359Z" fill="white"/>
<path d="M218.728 30.3323C218.459 29.9508 218.202 29.5521 217.944 29.1564V71.0718H218.835V30.479C218.8 30.4297 218.763 30.3821 218.728 30.3323Z" fill="white"/>
<path d="M154.603 43.5347V70.937H155.494V43.5347H154.603Z" fill="white"/>
<path d="M142.584 43.5347V73.1163H143.475V43.5347H142.584Z" fill="white"/>
<path d="M130.524 18.0226V75.0094H131.415V18.0226H130.524Z" fill="white"/>
<path d="M118.408 18.0231V77.0071H119.299V18.0231H118.408Z" fill="white"/>
<path d="M106.292 18.0224V79.0691H107.183V18.0224H106.292Z" fill="white"/>
<path d="M94.176 18.0229V81.2836H95.0671V18.0229H94.176Z" fill="white"/>
<path d="M259.29 151.287L257.676 129.753L258.121 129.724L259.725 151.287H259.29Z" fill="white"/>
<path d="M237.813 144.331L190.533 130.453L190.666 130.054L237.947 143.932L237.813 144.331Z" fill="white"/>
<path d="M297.09 151.287L296.625 151.264L301.738 115.828L302.179 115.884L297.09 151.287Z" fill="white"/>
<path d="M134.62 151.256H134.167L138.609 123.637L139.05 123.699L134.62 151.256Z" fill="white"/>
<path d="M58.8798 134.046L58.494 133.837L81.0993 97.064L81.4851 97.2729L58.8798 134.046Z" fill="white"/>
<path d="M30.8469 130.86L30.7042 130.464L120.008 102.146L120.151 102.543L30.8469 130.86Z" fill="white"/>
<path d="M190.569 130.46L138.799 123.875L138.859 123.461L190.629 130.046L190.569 130.46Z" fill="white"/>
<path d="M190.667 130.452L190.532 130.054L280.162 103.393L280.297 103.792L190.667 130.452Z" fill="white"/>
<path d="M257.816 129.933L144.345 87.5096L144.51 87.1209L257.981 129.544L257.816 129.933Z" fill="white"/>
<path d="M108.037 88.0823L88.4401 82.3642L88.5724 81.9647L108.169 87.6832L108.037 88.0823Z" fill="white"/>
<path d="M144.548 87.4913L144.307 87.1395L177.226 67.284L177.467 67.6354L144.548 87.4913Z" fill="white"/>
<path d="M134.265 104.297L107.981 88.0577L108.226 87.7084L134.51 103.947L134.265 104.297Z" fill="white"/>
<path d="M58.8437 134.09L58.5296 133.794L107.947 87.7345L108.261 88.0307L58.8437 134.09Z" fill="white"/>
<path d="M190.811 130.318L190.388 130.189L205.136 87.288L205.56 87.4159L190.811 130.318Z" fill="white"/>
<path d="M201.774 151.287L138.735 123.858L138.923 123.479L202.821 151.287H201.774Z" fill="white"/>
<path d="M301.749 115.926L292.976 92.8534L293.395 92.713L302.168 115.785L301.749 115.926Z" fill="white"/>
<path d="M280.133 103.782L235.374 83.8194L235.566 83.4424L280.325 103.405L280.133 103.782Z" fill="white"/>
<path d="M323.873 146.377L323.466 146.207L337.837 115.981L338.244 116.152L323.873 146.377Z" fill="white"/>
<path d="M67.357 151.287L58.4861 134.032L58.8871 133.851L67.8516 151.287H67.357Z" fill="white"/>
<path d="M58.7728 134.134L58.6004 133.749L134.302 103.929L134.474 104.314L58.7728 134.134Z" fill="white"/>
<path d="M58.5708 134.119L23.5606 114.093L23.7924 113.736L58.8025 133.763L58.5708 134.119Z" fill="white"/>
<path d="M190.443 130.401L144.271 87.4635L144.584 87.1664L190.756 130.104L190.443 130.401Z" fill="white"/>
<path d="M23.7496 113.854L88.5063 82.1642L23.7496 113.854Z" fill="#7CB5D0"/>
<path d="M23.9556 114.224L23.5435 113.483L88.3004 81.793L88.7125 82.5344L23.9556 114.224Z" fill="white"/>
<path d="M88.506 82.1637L177.345 67.4592L88.506 82.1637Z" fill="#7CB5D0"/>
<path d="M88.5839 82.575L88.4293 81.7525L177.268 67.0476L177.423 67.8704L88.5839 82.575Z" fill="white"/>
<path d="M23.7496 113.854L0 133.546L23.7496 113.854Z" fill="#7CB5D0"/>
<path d="M0 134.16V132.989L23.4546 113.541L24.0446 114.167L0 134.16Z" fill="white"/>
<path d="M23.7496 113.854L30.7753 130.662L23.7496 113.854Z" fill="#7CB5D0"/>
<path d="M30.3604 130.815L23.3345 114.007L24.1643 113.702L31.1901 130.51L30.3604 130.815Z" fill="white"/>
<path d="M30.7755 130.662L81.2921 97.1683L30.7755 130.662Z" fill="#7CB5D0"/>
<path d="M31.0324 131.003L30.5181 130.321L81.0347 96.8272L81.5488 97.5097L31.0324 131.003Z" fill="white"/>
<path d="M88.5078 82.1637L81.2921 97.1678L88.5078 82.1637Z" fill="#7CB5D0"/>
<path d="M81.6984 97.3397L80.8857 96.9962L88.1018 81.9921L88.9141 82.3356L81.6984 97.3397Z" fill="white"/>
<path d="M108.104 87.8822L81.2921 97.1678L108.104 87.8822Z" fill="#7CB5D0"/>
<path d="M81.4461 97.5605L81.1378 96.7762L107.95 87.4901L108.258 88.2745L81.4461 97.5605Z" fill="white"/>
<path d="M108.104 87.8831L151.652 75.2212L108.104 87.8831Z" fill="#7CB5D0"/>
<path d="M108.236 88.2816L107.972 87.4834L151.52 74.8216L151.784 75.6198L108.236 88.2816Z" fill="white"/>
<path d="M177.346 67.4591L230.04 72.3602L177.346 67.4591Z" fill="#7CB5D0"/>
<path d="M229.996 72.7764L177.302 67.8753L177.39 67.0432L230.084 71.9448L229.996 72.7764Z" fill="white"/>
<path d="M230.04 72.3611L260.959 80.5305L230.04 72.3611Z" fill="#7CB5D0"/>
<path d="M260.839 80.9329L229.919 72.7634L230.161 71.9585L261.081 80.128L260.839 80.9329Z" fill="white"/>
<path d="M260.959 80.5303L293.185 92.7838L260.959 80.5303Z" fill="#7CB5D0"/>
<path d="M293.018 93.1707L260.792 80.9171L261.127 80.1423L293.353 92.3959L293.018 93.1707Z" fill="white"/>
<path d="M293.185 92.7836L338.041 116.067L293.185 92.7836Z" fill="#7CB5D0"/>
<path d="M337.825 116.432L292.97 93.1489L293.402 92.4176L338.257 115.701L337.825 116.432Z" fill="white"/>
<path d="M338.041 116.066L374.436 151.301L338.041 116.066Z" fill="#7CB5D0"/>
<path d="M373.815 151.301L337.721 116.357L338.361 115.776L375 151.287L373.815 151.301Z" fill="white"/>
<path d="M338.041 116.067L342.831 127.911L338.041 116.067Z" fill="#7CB5D0"/>
<path d="M342.415 128.059L337.625 116.214L338.458 115.918L343.248 127.763L342.415 128.059Z" fill="white"/>
<path d="M301.959 115.856L338.041 116.067L301.959 115.856Z" fill="#7CB5D0"/>
<path d="M338.038 116.485L301.956 116.274L301.961 115.438L338.044 115.649L338.038 116.485Z" fill="white"/>
<path d="M323.67 146.292L342.831 127.912L323.67 146.292Z" fill="#7CB5D0"/>
<path d="M323.988 146.585L323.351 146.001L342.512 127.62L343.15 128.204L323.988 146.585Z" fill="white"/>
<path d="M323.67 146.292L280.23 103.593L323.67 146.292Z" fill="#7CB5D0"/>
<path d="M323.347 146.581L279.907 103.881L280.552 103.304L323.992 146.004L323.347 146.581Z" fill="white"/>
<path d="M293.186 92.7835L280.23 103.592L293.186 92.7835Z" fill="#7CB5D0"/>
<path d="M280.526 103.905L279.933 103.281L292.889 92.4718L293.482 93.0961L280.526 103.905Z" fill="white"/>
<path d="M260.959 80.53L280.229 103.592L260.959 80.53Z" fill="#7CB5D0"/>
<path d="M279.879 103.851L260.609 80.7885L261.31 80.2728L280.58 103.335L279.879 103.851Z" fill="white"/>
<path d="M230.04 72.3606L257.898 129.738L230.04 72.3606Z" fill="#7CB5D0"/>
<path d="M257.493 129.911L229.634 72.5336L230.446 72.1876L258.304 129.565L257.493 129.911Z" fill="white"/>
<path d="M230.04 72.3605L205.348 87.3517L230.04 72.3605Z" fill="#7CB5D0"/>
<path d="M205.59 87.7034L205.107 87.0013L229.798 72.0101L230.282 72.7122L205.59 87.7034Z" fill="white"/>
<path d="M177.346 67.4598L205.348 86.6571L177.346 67.4598Z" fill="#7CB5D0"/>
<path d="M205.085 86.9941L177.083 67.7964L177.609 67.1215L205.611 86.3188L205.085 86.9941Z" fill="white"/>
<path d="M138.829 123.668L205.349 87.3523L138.829 123.668Z" fill="#7CB5D0"/>
<path d="M139.053 124.03L138.605 123.307L205.124 86.9911L205.573 87.7132L139.053 124.03Z" fill="white"/>
<path d="M190.6 130.253L230.04 72.3605L190.6 130.253Z" fill="#7CB5D0"/>
<path d="M190.975 130.478L190.224 130.028L229.664 72.1356L230.415 72.5853L190.975 130.478Z" fill="white"/>
<path d="M190.6 130.253L257.345 129.738L190.6 130.253Z" fill="#7CB5D0"/>
<path d="M190.603 130.671L190.596 129.835L257.341 129.32L257.348 130.156L190.603 130.671Z" fill="white"/>
<path d="M257.345 129.738L280.23 103.592L257.345 129.738Z" fill="#7CB5D0"/>
<path d="M257.688 130.004L257 129.473L279.885 103.328L280.574 103.858L257.688 130.004Z" fill="white"/>
<path d="M205.348 87.3522L301.959 115.856L205.348 87.3522Z" fill="#7CB5D0"/>
<path d="M301.825 116.255L205.215 87.7508L205.481 86.9535L302.092 115.458L301.825 116.255Z" fill="white"/>
<path d="M134.388 104.122L205.348 87.3521L134.388 104.122Z" fill="#7CB5D0"/>
<path d="M134.497 104.527L134.279 103.717L205.24 86.9467L205.457 87.7575L134.497 104.527Z" fill="white"/>
<path d="M151.652 75.221L134.388 104.122L151.652 75.221Z" fill="#7CB5D0"/>
<path d="M134.776 104.326L133.999 103.917L151.263 75.0165L152.041 75.4252L134.776 104.326Z" fill="white"/>
<path d="M108.104 87.883L138.829 123.668L108.104 87.883Z" fill="#7CB5D0"/>
<path d="M138.482 123.93L107.756 88.1447L108.451 87.6207L139.176 123.406L138.482 123.93Z" fill="white"/>
<path d="M138.829 123.668L58.6869 133.942L138.829 123.668Z" fill="#7CB5D0"/>
<path d="M58.7466 134.356L58.6263 133.527L138.769 123.253L138.889 124.082L58.7466 134.356Z" fill="white"/>
<path d="M30.6045 130.253L58.6867 133.942L30.6045 130.253Z" fill="#7CB5D0"/>
<path d="M58.6245 134.356L30.5425 130.667L30.666 129.84L58.748 133.528L58.6245 134.356Z" fill="white"/>
<path d="M81.2919 97.1683L69.9893 151.287L81.2919 97.1683Z" fill="#7CB5D0"/>
<path d="M70.4434 151.287H69.58L80.855 97.088L81.7296 97.2489L70.4434 151.287Z" fill="white"/>
<path d="M30.6043 130.253L0.445435 151.158L30.6043 130.253Z" fill="#7CB5D0"/>
<path d="M1.00875 151.287H0V150.888L30.3397 129.917L30.8691 130.59L1.00875 151.287Z" fill="white"/>
<path d="M134.388 104.122L191.347 130.551L134.388 104.122Z" fill="#7CB5D0"/>
<path d="M191.149 130.926L134.19 104.496L134.585 103.747L191.544 130.177L191.149 130.926Z" fill="white"/>
<path d="M151.652 75.2206L205.349 87.3517L151.652 75.2206Z" fill="#7CB5D0"/>
<path d="M205.244 87.7581L151.548 75.6265L151.756 74.8137L205.453 86.9448L205.244 87.7581Z" fill="white"/>
<path d="M260.959 80.5299L205.349 87.3517L260.959 80.5299Z" fill="#7CB5D0"/>
<path d="M205.407 87.7659L205.291 86.9376L260.901 80.1159L261.017 80.9441L205.407 87.7659Z" fill="white"/>
<path d="M301.959 115.856L320.112 151.301L301.959 115.856Z" fill="#7CB5D0"/>
<path d="M319.61 151.287L301.557 116.037L302.36 115.675L320.647 151.301L319.61 151.287Z" fill="white"/>
<path d="M301.959 115.856L221.346 151.287L301.959 115.856Z" fill="#7CB5D0"/>
<path d="M222.396 151.287H220.3L301.769 115.478L302.148 116.234L222.396 151.287Z" fill="white"/>
<path d="M257.899 129.105L273.097 151.611L257.899 129.105Z" fill="#7CB5D0"/>
<path d="M272.351 151.287L257.522 129.329L258.275 128.882L273.365 151.287H272.351Z" fill="white"/>
<path d="M301.468 116.067L354.73 151.287L301.468 116.067Z" fill="#7CB5D0"/>
<path d="M354.412 151.301L301.211 116.408L301.724 115.725L355.526 151.287L354.412 151.301Z" fill="white"/>
<path d="M341.9 128.804L293.186 92.7833L341.9 128.804Z" fill="#7CB5D0"/>
<path d="M341.624 129.134L292.91 93.1122L293.462 92.4561L342.176 128.477L341.624 129.134Z" fill="white"/>
<path d="M81.2921 97.1685L134.388 104.426L81.2921 97.1685Z" fill="#7CB5D0"/>
<path d="M134.323 104.839L81.2277 97.5821L81.356 96.7551L134.452 104.012L134.323 104.839Z" fill="white"/>
<path d="M134.388 104.426L53.1375 151.158L134.388 104.426Z" fill="#7CB5D0"/>
<path d="M53.7648 151.287H52.0913L134.155 104.069L134.621 104.781L53.7648 151.287Z" fill="white"/>
<path d="M107.84 87.9739L205.348 86.6571L107.84 87.9739Z" fill="#7CB5D0"/>
<path d="M107.846 88.392L107.834 87.5562L205.342 86.2394L205.355 87.0752L107.846 88.392Z" fill="white"/>
<path d="M205.348 86.6569L242.031 151.287L205.348 86.6569Z" fill="#7CB5D0"/>
<path d="M241.527 151.287L204.955 86.8533L205.742 86.4605L242.526 151.287H241.527Z" fill="white"/>
<path d="M191.347 130.551L181.076 151.287L191.347 130.551Z" fill="#7CB5D0"/>
<path d="M181.566 151.287H180.671L190.943 130.375L191.751 130.727L181.566 151.287Z" fill="white"/>
<path d="M138.829 123.668L146.193 151.287L138.829 123.668Z" fill="#7CB5D0"/>
<path d="M145.725 151.256L138.397 123.769L139.262 123.567L146.625 151.287L145.725 151.256Z" fill="white"/>
<path d="M138.829 123.668L106.811 151.287L138.829 123.668Z" fill="#7CB5D0"/>
<path d="M107.469 151.287H106.186L138.528 123.36L139.131 123.976L107.469 151.287Z" fill="white"/>
<path d="M257.898 129.738L205.805 87.4863L257.898 129.738Z" fill="#7CB5D0"/>
<path d="M257.607 130.055L205.513 87.8029L206.096 87.1706L258.19 129.422L257.607 130.055Z" fill="white"/>
<path d="M323.67 146.292L257.118 129.105L323.67 146.292Z" fill="#7CB5D0"/>
<path d="M323.551 146.695L257 129.508L257.237 128.702L323.789 145.889L323.551 146.695Z" fill="white"/>
<path d="M151.652 75.2205L230.041 72.3604L151.652 75.2205Z" fill="#7CB5D0"/>
<path d="M151.669 75.6385L151.635 74.8036L230.023 71.9435L230.058 72.7785L151.669 75.6385Z" fill="white"/>
<path d="M151.652 75.2204L88.506 82.1666L151.652 75.2204Z" fill="#7CB5D0"/>
<path d="M88.5585 82.5818L88.4547 81.7518L151.6 74.8056L151.704 75.6355L88.5585 82.5818Z" fill="white"/>
<path d="M23.6764 113.916L81.2918 97.1683L23.6764 113.916Z" fill="#7CB5D0"/>
<path d="M23.8082 114.314L23.5445 113.515L81.16 96.7688L81.4238 97.567L23.8082 114.314Z" fill="white"/>
<path d="M323.67 146.292L320.112 151.301L323.67 146.292Z" fill="#7CB5D0"/>
<path d="M320.647 151.301L319.61 151.287L323.299 146.06L324.04 146.524L320.647 151.301Z" fill="white"/>
<path d="M191.347 130.551L208.996 151.287L191.347 130.551Z" fill="#7CB5D0"/>
<path d="M208.426 151.287L190.999 130.812L191.695 130.29L209.544 151.287H208.426Z" fill="white"/>
<path d="M30.6044 130.253L25.2994 151.287L30.6044 130.253Z" fill="#7CB5D0"/>
<path d="M25.7576 151.287H24.8661L30.1711 130.157L31.0382 130.35L25.7576 151.287Z" fill="white"/>
<path d="M36.8011 151.287L30.6045 130.253L36.8011 151.287Z" fill="#7CB5D0"/>
<path d="M36.4439 151.287L30.2802 130.365L31.1391 130.142L37.3357 151.287H36.4439Z" fill="white"/>
<path d="M58.6867 133.941L45.1309 151.287L58.6867 133.941Z" fill="#7CB5D0"/>
<path d="M45.6834 151.287H44.6332L58.3271 133.695L59.0458 134.188L45.6834 151.287Z" fill="white"/>
<path d="M323.67 146.292L330.551 151.301L323.67 146.292Z" fill="#7CB5D0"/>
<path d="M329.806 151.287L323.397 146.622L323.943 145.962L331.199 151.301L329.806 151.287Z" fill="white"/>
<path d="M342.831 127.911L353.891 151.301L342.831 127.911Z" fill="#7CB5D0"/>
<path d="M353.403 151.301L342.424 128.081L343.238 127.742L354.413 151.301H353.403Z" fill="white"/>
<path d="M191.347 130.551L151.282 151.287L191.347 130.551Z" fill="#7CB5D0"/>
<path d="M152.205 151.287H150.386L191.131 130.185L191.562 130.917L152.205 151.287Z" fill="white"/>
<path d="M232.14 151.287H231.677L237.705 144.002L238.055 144.26L232.14 151.287Z" fill="white"/>
<path d="M84.4525 97.1679C84.4525 98.8048 83.0375 100.132 81.2914 100.132C79.5462 100.132 78.1311 98.8048 78.1311 97.1679C78.1311 95.5306 79.5462 94.2038 81.2914 94.2038C83.0375 94.2038 84.4525 95.5306 84.4525 97.1679Z" fill="white"/>
<path d="M84.4525 97.1679C84.4525 98.8048 83.0375 100.132 81.2914 100.132C79.5462 100.132 78.1311 98.8048 78.1311 97.1679C78.1311 95.5306 79.5462 94.2038 81.2914 94.2038C83.0375 94.2038 84.4525 95.5306 84.4525 97.1679Z" stroke="white" stroke-width="1.33333" stroke-miterlimit="10"/>
<path d="M264.12 80.387C264.12 82.0239 262.705 83.3516 260.959 83.3516C259.214 83.3516 257.799 82.0239 257.799 80.387C257.799 78.7497 259.214 77.4225 260.959 77.4225C262.705 77.4225 264.12 78.7497 264.12 80.387Z" fill="white"/>
<path d="M264.12 80.387C264.12 82.0239 262.705 83.3516 260.959 83.3516C259.214 83.3516 257.799 82.0239 257.799 80.387C257.799 78.7497 259.214 77.4225 260.959 77.4225C262.705 77.4225 264.12 78.7497 264.12 80.387Z" stroke="white" stroke-width="1.33333" stroke-miterlimit="10"/>
<path d="M283.39 103.593C283.39 105.229 281.975 106.557 280.229 106.557C278.484 106.557 277.069 105.229 277.069 103.593C277.069 101.955 278.484 100.628 280.229 100.628C281.975 100.628 283.39 101.955 283.39 103.593Z" fill="white"/>
<path d="M283.39 103.593C283.39 105.229 281.975 106.557 280.229 106.557C278.484 106.557 277.069 105.229 277.069 103.593C277.069 101.955 278.484 100.628 280.229 100.628C281.975 100.628 283.39 101.955 283.39 103.593Z" stroke="white" stroke-width="1.33333" stroke-miterlimit="10"/>
<path d="M91.6684 82.1639C91.6684 83.8008 90.2533 85.1284 88.5072 85.1284C86.762 85.1284 85.3474 83.8008 85.3474 82.1639C85.3474 80.5265 86.762 79.1993 88.5072 79.1993C90.2533 79.1993 91.6684 80.5265 91.6684 82.1639Z" fill="white"/>
<path d="M91.6684 82.1639C91.6684 83.8008 90.2533 85.1284 88.5072 85.1284C86.762 85.1284 85.3474 83.8008 85.3474 82.1639C85.3474 80.5265 86.762 79.1993 88.5072 79.1993C90.2533 79.1993 91.6684 80.5265 91.6684 82.1639Z" stroke="white" stroke-width="1.33333" stroke-miterlimit="10"/>
<path d="M154.813 75.2205C154.813 76.8574 153.397 78.1851 151.651 78.1851C149.906 78.1851 148.491 76.8574 148.491 75.2205C148.491 73.5832 149.906 72.2559 151.651 72.2559C153.397 72.2559 154.813 73.5832 154.813 75.2205Z" fill="white"/>
<path d="M154.813 75.2205C154.813 76.8574 153.397 78.1851 151.651 78.1851C149.906 78.1851 148.491 76.8574 148.491 75.2205C148.491 73.5832 149.906 72.2559 151.651 72.2559C153.397 72.2559 154.813 73.5832 154.813 75.2205Z" stroke="white" stroke-width="1.33333" stroke-miterlimit="10"/>
<path d="M33.9361 130.662C33.9361 132.299 32.5208 133.627 30.775 133.627C29.0297 133.627 27.6149 132.299 27.6149 130.662C27.6149 129.025 29.0297 127.698 30.775 127.698C32.5208 127.698 33.9361 129.025 33.9361 130.662Z" fill="white"/>
<path d="M33.9361 130.662C33.9361 132.299 32.5208 133.627 30.775 133.627C29.0297 133.627 27.6149 132.299 27.6149 130.662C27.6149 129.025 29.0297 127.698 30.775 127.698C32.5208 127.698 33.9361 129.025 33.9361 130.662V130.662Z" stroke="white" stroke-width="1.35839" stroke-miterlimit="10"/>
<path d="M111.265 87.8827C111.265 89.5196 109.849 90.8468 108.103 90.8468C106.358 90.8468 104.943 89.5196 104.943 87.8827C104.943 86.2453 106.358 84.9181 108.103 84.9181C109.849 84.9181 111.265 86.2453 111.265 87.8827Z" fill="white"/>
<path d="M111.265 87.8827C111.265 89.5196 109.849 90.8468 108.103 90.8468C106.358 90.8468 104.943 89.5196 104.943 87.8827C104.943 86.2453 106.358 84.9181 108.103 84.9181C109.849 84.9181 111.265 86.2453 111.265 87.8827Z" stroke="white" stroke-width="1.33333" stroke-miterlimit="10"/>
<path d="M141.99 123.668C141.99 125.305 140.575 126.633 138.829 126.633C137.083 126.633 135.669 125.305 135.669 123.668C135.669 122.031 137.083 120.704 138.829 120.704C140.575 120.704 141.99 122.031 141.99 123.668Z" fill="white"/>
<path d="M141.99 123.668C141.99 125.305 140.575 126.633 138.829 126.633C137.083 126.633 135.669 125.305 135.669 123.668C135.669 122.031 137.083 120.704 138.829 120.704C140.575 120.704 141.99 122.031 141.99 123.668Z" stroke="white" stroke-width="1.33333" stroke-miterlimit="10"/>
<path d="M326.83 146.293C326.83 147.93 325.415 149.257 323.669 149.257C321.924 149.257 320.509 147.93 320.509 146.293C320.509 144.655 321.924 143.328 323.669 143.328C325.415 143.328 326.83 144.655 326.83 146.293Z" fill="white"/>
<path d="M326.83 146.293C326.83 147.93 325.415 149.257 323.669 149.257C321.924 149.257 320.509 147.93 320.509 146.293C320.509 144.655 321.924 143.328 323.669 143.328C325.415 143.328 326.83 144.655 326.83 146.293V146.293Z" stroke="white" stroke-width="1.33333" stroke-miterlimit="10"/>
<path d="M147.517 87.3146C147.517 88.9515 146.101 90.2792 144.355 90.2792C142.61 90.2792 141.195 88.9515 141.195 87.3146C141.195 85.6773 142.61 84.3501 144.355 84.3501C146.101 84.3501 147.517 85.6773 147.517 87.3146Z" fill="white"/>
<path d="M147.517 87.3146C147.517 88.9515 146.101 90.2792 144.355 90.2792C142.61 90.2792 141.195 88.9515 141.195 87.3146C141.195 85.6773 142.61 84.3501 144.355 84.3501C146.101 84.3501 147.517 85.6773 147.517 87.3146Z" stroke="white" stroke-width="1.33333" stroke-miterlimit="10"/>
<path d="M296.346 92.784C296.346 94.4209 294.931 95.7485 293.185 95.7485C291.439 95.7485 290.025 94.4209 290.025 92.784C290.025 91.1467 291.439 89.8194 293.185 89.8194C294.931 89.8194 296.346 91.1467 296.346 92.784Z" fill="white"/>
<path d="M296.346 92.784C296.346 94.4209 294.931 95.7485 293.185 95.7485C291.439 95.7485 290.025 94.4209 290.025 92.784C290.025 91.1467 291.439 89.8194 293.185 89.8194C294.931 89.8194 296.346 91.1467 296.346 92.784Z" stroke="white" stroke-width="1.33333" stroke-miterlimit="10"/>
<path d="M180.506 67.4601C180.506 69.097 179.091 70.4242 177.345 70.4242C175.6 70.4242 174.185 69.097 174.185 67.4601C174.185 65.8227 175.6 64.4955 177.345 64.4955C179.091 64.4955 180.506 65.8227 180.506 67.4601Z" fill="white"/>
<path d="M180.506 67.4601C180.506 69.097 179.091 70.4242 177.345 70.4242C175.6 70.4242 174.185 69.097 174.185 67.4601C174.185 65.8227 175.6 64.4955 177.345 64.4955C179.091 64.4955 180.506 65.8227 180.506 67.4601V67.4601Z" stroke="white" stroke-width="1.33333" stroke-miterlimit="10"/>
<path d="M241.04 144.131C241.04 145.768 239.625 147.095 237.879 147.095C236.134 147.095 234.719 145.768 234.719 144.131C234.719 142.494 236.134 141.167 237.879 141.167C239.625 141.167 241.04 142.494 241.04 144.131Z" fill="white"/>
<path d="M241.04 144.131C241.04 145.768 239.625 147.095 237.879 147.095C236.134 147.095 234.719 145.768 234.719 144.131C234.719 142.494 236.134 141.167 237.879 141.167C239.625 141.167 241.04 142.494 241.04 144.131Z" stroke="white" stroke-width="1.33333" stroke-miterlimit="10"/>
<path d="M232.661 72.3604C232.661 73.9973 231.247 75.325 229.501 75.325C227.755 75.325 226.34 73.9973 226.34 72.3604C226.34 70.7231 227.755 69.3958 229.501 69.3958C231.247 69.3958 232.661 70.7231 232.661 72.3604Z" fill="white"/>
<path d="M232.661 72.3604C232.661 73.9973 231.247 75.325 229.501 75.325C227.755 75.325 226.34 73.9973 226.34 72.3604C226.34 70.7231 227.755 69.3958 229.501 69.3958C231.247 69.3958 232.661 70.7231 232.661 72.3604Z" stroke="white" stroke-width="1.33333" stroke-miterlimit="10"/>
<path d="M345.992 127.96C345.992 129.597 344.577 130.925 342.831 130.925C341.086 130.925 339.671 129.597 339.671 127.96C339.671 126.323 341.086 124.996 342.831 124.996C344.577 124.996 345.992 126.323 345.992 127.96Z" fill="white"/>
<path d="M345.992 127.96C345.992 129.597 344.577 130.925 342.831 130.925C341.086 130.925 339.671 129.597 339.671 127.96C339.671 126.323 341.086 124.996 342.831 124.996C344.577 124.996 345.992 126.323 345.992 127.96Z" stroke="white" stroke-width="1.33333" stroke-miterlimit="10"/>
<path d="M26.837 113.854C26.837 115.491 25.4217 116.819 23.6759 116.819C21.9306 116.819 20.5158 115.491 20.5158 113.854C20.5158 112.217 21.9306 110.89 23.6759 110.89C25.4217 110.89 26.837 112.217 26.837 113.854Z" fill="white"/>
<path d="M26.837 113.854C26.837 115.491 25.4217 116.819 23.6759 116.819C21.9306 116.819 20.5158 115.491 20.5158 113.854C20.5158 112.217 21.9306 110.89 23.6759 110.89C25.4217 110.89 26.837 112.217 26.837 113.854Z" stroke="white" stroke-width="1.33333" stroke-miterlimit="10"/>
<path d="M137.548 104.122C137.548 105.759 136.133 107.087 134.387 107.087C132.642 107.087 131.227 105.759 131.227 104.122C131.227 102.485 132.642 101.157 134.387 101.157C136.133 101.157 137.548 102.485 137.548 104.122Z" fill="white"/>
<path d="M137.548 104.122C137.548 105.759 136.133 107.087 134.387 107.087C132.642 107.087 131.227 105.759 131.227 104.122C131.227 102.485 132.642 101.157 134.387 101.157C136.133 101.157 137.548 102.485 137.548 104.122Z" stroke="white" stroke-width="1.33333" stroke-miterlimit="10"/>
<path d="M238.631 83.6301C238.631 85.267 237.216 86.5946 235.47 86.5946C233.724 86.5946 232.309 85.267 232.309 83.6301C232.309 81.9927 233.724 80.6655 235.47 80.6655C237.216 80.6655 238.631 81.9927 238.631 83.6301Z" fill="white"/>
<path d="M238.631 83.6301C238.631 85.267 237.216 86.5946 235.47 86.5946C233.724 86.5946 232.309 85.267 232.309 83.6301C232.309 81.9927 233.724 80.6655 235.47 80.6655C237.216 80.6655 238.631 81.9927 238.631 83.6301Z" stroke="white" stroke-width="1.33333" stroke-miterlimit="10"/>
<path d="M261.06 129.737C261.06 131.374 259.645 132.702 257.899 132.702C256.153 132.702 254.738 131.374 254.738 129.737C254.738 128.1 256.153 126.773 257.899 126.773C259.645 126.773 261.06 128.1 261.06 129.737Z" fill="white"/>
<path d="M261.06 129.737C261.06 131.374 259.645 132.702 257.899 132.702C256.153 132.702 254.738 131.374 254.738 129.737C254.738 128.1 256.153 126.773 257.899 126.773C259.645 126.773 261.06 128.1 261.06 129.737Z" stroke="white" stroke-width="1.33333" stroke-miterlimit="10"/>
<path d="M341.202 116.066C341.202 117.703 339.787 119.031 338.04 119.031C336.295 119.031 334.88 117.703 334.88 116.066C334.88 114.429 336.295 113.102 338.04 113.102C339.787 113.102 341.202 114.429 341.202 116.066Z" fill="white"/>
<path d="M341.202 116.066C341.202 117.703 339.787 119.031 338.04 119.031C336.295 119.031 334.88 117.703 334.88 116.066C334.88 114.429 336.295 113.102 338.04 113.102C339.787 113.102 341.202 114.429 341.202 116.066Z" stroke="white" stroke-width="1.33333" stroke-miterlimit="10"/>
<path d="M61.8468 133.942C61.8468 135.579 60.4313 136.906 58.6857 136.906C56.94 136.906 55.5254 135.579 55.5254 133.942C55.5254 132.304 56.94 130.977 58.6857 130.977C60.4313 130.977 61.8468 132.304 61.8468 133.942Z" fill="white"/>
<path d="M61.8468 133.942C61.8468 135.579 60.4313 136.906 58.6857 136.906C56.94 136.906 55.5254 135.579 55.5254 133.942C55.5254 132.304 56.94 130.977 58.6857 130.977C60.4313 130.977 61.8468 132.304 61.8468 133.942Z" stroke="white" stroke-width="1.33333" stroke-miterlimit="10"/>
<path d="M123.24 102.345C123.24 103.982 121.825 105.31 120.079 105.31C118.334 105.31 116.919 103.982 116.919 102.345C116.919 100.708 118.334 99.3806 120.079 99.3806C121.825 99.3806 123.24 100.708 123.24 102.345Z" fill="white"/>
<path d="M123.24 102.345C123.24 103.982 121.825 105.31 120.079 105.31C118.334 105.31 116.919 103.982 116.919 102.345C116.919 100.708 118.334 99.3806 120.079 99.3806C121.825 99.3806 123.24 100.708 123.24 102.345Z" stroke="white" stroke-width="1.33333" stroke-miterlimit="10"/>
<path d="M208.508 87.3146C208.508 88.9515 207.094 90.2792 205.348 90.2792C203.602 90.2792 202.187 88.9515 202.187 87.3146C202.187 85.6773 203.602 84.3501 205.348 84.3501C207.094 84.3501 208.508 85.6773 208.508 87.3146Z" fill="white"/>
<path d="M208.508 87.3146C208.508 88.9515 207.094 90.2792 205.348 90.2792C203.602 90.2792 202.187 88.9515 202.187 87.3146C202.187 85.6773 203.602 84.3501 205.348 84.3501C207.094 84.3501 208.508 85.6773 208.508 87.3146Z" stroke="white" stroke-width="1.33333" stroke-miterlimit="10"/>
<path d="M305.111 115.857C305.111 117.494 303.696 118.821 301.95 118.821C300.204 118.821 298.789 117.494 298.789 115.857C298.789 114.219 300.204 112.892 301.95 112.892C303.696 112.892 305.111 114.219 305.111 115.857Z" fill="white"/>
<path d="M305.111 115.857C305.111 117.494 303.696 118.821 301.95 118.821C300.204 118.821 298.789 117.494 298.789 115.857C298.789 114.219 300.204 112.892 301.95 112.892C303.696 112.892 305.111 114.219 305.111 115.857Z" stroke="white" stroke-width="1.33333" stroke-miterlimit="10"/>
<path d="M193.76 130.253C193.76 131.89 192.345 133.218 190.599 133.218C188.854 133.218 187.439 131.89 187.439 130.253C187.439 128.616 188.854 127.289 190.599 127.289C192.345 127.289 193.76 128.616 193.76 130.253Z" fill="white"/>
<path d="M193.76 130.253C193.76 131.89 192.345 133.218 190.599 133.218C188.854 133.218 187.439 131.89 187.439 130.253C187.439 128.616 188.854 127.289 190.599 127.289C192.345 127.289 193.76 128.616 193.76 130.253Z" stroke="white" stroke-width="1.33333" stroke-miterlimit="10"/>
<path d="M25.644 113.854C25.644 114.835 24.7957 115.631 23.7495 115.631C22.7034 115.631 21.855 114.835 21.855 113.854C21.855 112.872 22.7034 112.077 23.7495 112.077C24.7957 112.077 25.644 112.872 25.644 113.854Z" fill="white"/>
<path d="M25.644 113.854C25.644 114.835 24.7957 115.631 23.7495 115.631C22.7034 115.631 21.855 114.835 21.855 113.854C21.855 112.872 22.7034 112.077 23.7495 112.077C24.7957 112.077 25.644 112.872 25.644 113.854Z" stroke="white" stroke-width="1.33333" stroke-miterlimit="10"/>
<path d="M90.4009 82.1637C90.4009 83.1449 89.5526 83.9406 88.5064 83.9406C87.4598 83.9406 86.6119 83.1449 86.6119 82.1637C86.6119 81.182 87.4598 80.3868 88.5064 80.3868C89.5526 80.3868 90.4009 81.182 90.4009 82.1637Z" fill="white"/>
<path d="M90.4009 82.1637C90.4009 83.1449 89.5526 83.9406 88.5064 83.9406C87.4598 83.9406 86.6119 83.1449 86.6119 82.1637C86.6119 81.182 87.4598 80.3868 88.5064 80.3868C89.5526 80.3868 90.4009 81.182 90.4009 82.1637Z" stroke="white" stroke-width="1.33333" stroke-miterlimit="10"/>
<path d="M60.5807 133.942C60.5807 134.923 59.7324 135.718 58.6863 135.718C57.6401 135.718 56.7918 134.923 56.7918 133.942C56.7918 132.96 57.6401 132.165 58.6863 132.165C59.7324 132.165 60.5807 132.96 60.5807 133.942Z" fill="white"/>
<path d="M60.5807 133.942C60.5807 134.923 59.7324 135.718 58.6863 135.718C57.6401 135.718 56.7918 134.923 56.7918 133.942C56.7918 132.96 57.6401 132.165 58.6863 132.165C59.7324 132.165 60.5807 132.96 60.5807 133.942Z" stroke="white" stroke-width="1.33333" stroke-miterlimit="10"/>
<path d="M121.974 102.345C121.974 103.326 121.125 104.122 120.079 104.122C119.033 104.122 118.185 103.326 118.185 102.345C118.185 101.363 119.033 100.568 120.079 100.568C121.125 100.568 121.974 101.363 121.974 102.345Z" fill="white"/>
<path d="M121.974 102.345C121.974 103.326 121.125 104.122 120.079 104.122C119.033 104.122 118.185 103.326 118.185 102.345C118.185 101.363 119.033 100.568 120.079 100.568C121.125 100.568 121.974 101.363 121.974 102.345Z" stroke="white" stroke-width="1.33333" stroke-miterlimit="10"/>
<path d="M32.6703 130.662C32.6703 131.643 31.822 132.439 30.7755 132.439C29.7293 132.439 28.8814 131.643 28.8814 130.662C28.8814 129.681 29.7293 128.885 30.7755 128.885C31.822 128.885 32.6703 129.681 32.6703 130.662Z" fill="white"/>
<path d="M32.6703 130.662C32.6703 131.643 31.822 132.439 30.7755 132.439C29.7293 132.439 28.8814 131.643 28.8814 130.662C28.8814 129.681 29.7293 128.885 30.7755 128.885C31.822 128.885 32.6703 129.681 32.6703 130.662V130.662Z" stroke="white" stroke-width="1.33333" stroke-miterlimit="10"/>
<path d="M83.1875 97.1678C83.1875 98.149 82.3392 98.9447 81.293 98.9447C80.2464 98.9447 79.3986 98.149 79.3986 97.1678C79.3986 96.1866 80.2464 95.3909 81.293 95.3909C82.3392 95.3909 83.1875 96.1866 83.1875 97.1678Z" fill="white"/>
<path d="M83.1875 97.1678C83.1875 98.149 82.3392 98.9447 81.293 98.9447C80.2464 98.9447 79.3986 98.149 79.3986 97.1678C79.3986 96.1866 80.2464 95.3909 81.293 95.3909C82.3392 95.3909 83.1875 96.1866 83.1875 97.1678Z" stroke="white" stroke-width="1.33333" stroke-miterlimit="10"/>
<path d="M295.08 92.7842C295.08 93.7654 294.232 94.5607 293.185 94.5607C292.139 94.5607 291.291 93.7654 291.291 92.7842C291.291 91.8026 292.139 91.0069 293.185 91.0069C294.232 91.0069 295.08 91.8026 295.08 92.7842Z" fill="white"/>
<path d="M295.08 92.7842C295.08 93.7654 294.232 94.5607 293.185 94.5607C292.139 94.5607 291.291 93.7654 291.291 92.7842C291.291 91.8026 292.139 91.0069 293.185 91.0069C294.232 91.0069 295.08 91.8026 295.08 92.7842Z" stroke="white" stroke-width="1.33333" stroke-miterlimit="10"/>
<path d="M303.853 115.857C303.853 116.838 303.005 117.633 301.959 117.633C300.912 117.633 300.064 116.838 300.064 115.857C300.064 114.875 300.912 114.08 301.959 114.08C303.005 114.08 303.853 114.875 303.853 115.857Z" fill="white"/>
<path d="M303.853 115.857C303.853 116.838 303.005 117.633 301.959 117.633C300.912 117.633 300.064 116.838 300.064 115.857C300.064 114.875 300.912 114.08 301.959 114.08C303.005 114.08 303.853 114.875 303.853 115.857Z" stroke="white" stroke-width="1.33333" stroke-miterlimit="10"/>
<path d="M262.854 80.5309C262.854 81.5117 262.006 82.3074 260.96 82.3074C259.913 82.3074 259.065 81.5117 259.065 80.5309C259.065 79.5493 259.913 78.7536 260.96 78.7536C262.006 78.7536 262.854 79.5493 262.854 80.5309Z" fill="white"/>
<path d="M262.854 80.5309C262.854 81.5117 262.006 82.3074 260.96 82.3074C259.913 82.3074 259.065 81.5117 259.065 80.5309C259.065 79.5493 259.913 78.7536 260.96 78.7536C262.006 78.7536 262.854 79.5493 262.854 80.5309Z" stroke="white" stroke-width="1.33333" stroke-miterlimit="10"/>
<path d="M179.24 67.4599C179.24 68.4411 178.392 69.2363 177.346 69.2363C176.299 69.2363 175.451 68.4411 175.451 67.4599C175.451 66.4786 176.299 65.683 177.346 65.683C178.392 65.683 179.24 66.4786 179.24 67.4599Z" fill="white"/>
<path d="M179.24 67.4599C179.24 68.4411 178.392 69.2363 177.346 69.2363C176.299 69.2363 175.451 68.4411 175.451 67.4599C175.451 66.4786 176.299 65.683 177.346 65.683C178.392 65.683 179.24 66.4786 179.24 67.4599V67.4599Z" stroke="white" stroke-width="1.33333" stroke-miterlimit="10"/>
<path d="M153.547 75.2204C153.547 76.2012 152.698 76.9973 151.652 76.9973C150.606 76.9973 149.758 76.2012 149.758 75.2204C149.758 74.2388 150.606 73.4431 151.652 73.4431C152.698 73.4431 153.547 74.2388 153.547 75.2204Z" fill="white"/>
<path d="M153.547 75.2204C153.547 76.2012 152.698 76.9973 151.652 76.9973C150.606 76.9973 149.758 76.2012 149.758 75.2204C149.758 74.2388 150.606 73.4431 151.652 73.4431C152.698 73.4431 153.547 74.2388 153.547 75.2204Z" stroke="white" stroke-width="1.33333" stroke-miterlimit="10"/>
<path d="M231.396 72.3606C231.396 73.3418 230.547 74.1371 229.501 74.1371C228.455 74.1371 227.607 73.3418 227.607 72.3606C227.607 71.379 228.455 70.5833 229.501 70.5833C230.547 70.5833 231.396 71.379 231.396 72.3606Z" fill="white"/>
<path d="M231.396 72.3606C231.396 73.3418 230.547 74.1371 229.501 74.1371C228.455 74.1371 227.607 73.3418 227.607 72.3606C227.607 71.379 228.455 70.5833 229.501 70.5833C230.547 70.5833 231.396 71.379 231.396 72.3606Z" stroke="white" stroke-width="1.33333" stroke-miterlimit="10"/>
<path d="M344.726 127.912C344.726 128.893 343.878 129.688 342.831 129.688C341.785 129.688 340.937 128.893 340.937 127.912C340.937 126.93 341.785 126.135 342.831 126.135C343.878 126.135 344.726 126.93 344.726 127.912Z" fill="white"/>
<path d="M344.726 127.912C344.726 128.893 343.878 129.688 342.831 129.688C341.785 129.688 340.937 128.893 340.937 127.912C340.937 126.93 341.785 126.135 342.831 126.135C343.878 126.135 344.726 126.93 344.726 127.912Z" stroke="white" stroke-width="1.33333" stroke-miterlimit="10"/>
<path d="M239.774 144.131C239.774 145.112 238.926 145.908 237.879 145.908C236.833 145.908 235.985 145.112 235.985 144.131C235.985 143.15 236.833 142.354 237.879 142.354C238.926 142.354 239.774 143.15 239.774 144.131Z" fill="white"/>
<path d="M239.774 144.131C239.774 145.112 238.926 145.908 237.879 145.908C236.833 145.908 235.985 145.112 235.985 144.131C235.985 143.15 236.833 142.354 237.879 142.354C238.926 142.354 239.774 143.15 239.774 144.131Z" stroke="white" stroke-width="1.33333" stroke-miterlimit="10"/>
<path d="M339.936 116.066C339.936 117.048 339.088 117.843 338.041 117.843C336.995 117.843 336.147 117.048 336.147 116.066C336.147 115.085 336.995 114.289 338.041 114.289C339.088 114.289 339.936 115.085 339.936 116.066Z" fill="white"/>
<path d="M339.936 116.066C339.936 117.048 339.088 117.843 338.041 117.843C336.995 117.843 336.147 117.048 336.147 116.066C336.147 115.085 336.995 114.289 338.041 114.289C339.088 114.289 339.936 115.085 339.936 116.066Z" stroke="white" stroke-width="1.33333" stroke-miterlimit="10"/>
<path d="M237.365 83.6308C237.365 84.6116 236.517 85.4077 235.47 85.4077C234.424 85.4077 233.576 84.6116 233.576 83.6308C233.576 82.6492 234.424 81.8539 235.47 81.8539C236.517 81.8539 237.365 82.6492 237.365 83.6308Z" fill="white"/>
<path d="M237.365 83.6308C237.365 84.6116 236.517 85.4077 235.47 85.4077C234.424 85.4077 233.576 84.6116 233.576 83.6308C233.576 82.6492 234.424 81.8539 235.47 81.8539C236.517 81.8539 237.365 82.6492 237.365 83.6308Z" stroke="white" stroke-width="1.33333" stroke-miterlimit="10"/>
<path d="M325.564 146.292C325.564 147.274 324.716 148.069 323.67 148.069C322.623 148.069 321.776 147.274 321.776 146.292C321.776 145.311 322.623 144.516 323.67 144.516C324.716 144.516 325.564 145.311 325.564 146.292Z" fill="white"/>
<path d="M325.564 146.292C325.564 147.274 324.716 148.069 323.67 148.069C322.623 148.069 321.776 147.274 321.776 146.292C321.776 145.311 322.623 144.516 323.67 144.516C324.716 144.516 325.564 145.311 325.564 146.292Z" stroke="white" stroke-width="1.33333" stroke-miterlimit="10"/>
<path d="M140.724 123.669C140.724 124.65 139.875 125.445 138.829 125.445C137.783 125.445 136.935 124.65 136.935 123.669C136.935 122.687 137.783 121.891 138.829 121.891C139.875 121.891 140.724 122.687 140.724 123.669Z" fill="white"/>
<path d="M140.724 123.669C140.724 124.65 139.875 125.445 138.829 125.445C137.783 125.445 136.935 124.65 136.935 123.669C136.935 122.687 137.783 121.891 138.829 121.891C139.875 121.891 140.724 122.687 140.724 123.669Z" stroke="white" stroke-width="1.33333" stroke-miterlimit="10"/>
<path d="M146.25 87.3521C146.25 88.3333 145.402 89.1285 144.356 89.1285C143.309 89.1285 142.461 88.3333 142.461 87.3521C142.461 86.3704 143.309 85.5748 144.356 85.5748C145.402 85.5748 146.25 86.3704 146.25 87.3521Z" fill="white"/>
<path d="M146.25 87.3521C146.25 88.3333 145.402 89.1285 144.356 89.1285C143.309 89.1285 142.461 88.3333 142.461 87.3521C142.461 86.3704 143.309 85.5748 144.356 85.5748C145.402 85.5748 146.25 86.3704 146.25 87.3521Z" stroke="white" stroke-width="1.33333" stroke-miterlimit="10"/>
<path d="M259.794 129.738C259.794 130.719 258.946 131.515 257.899 131.515C256.853 131.515 256.005 130.719 256.005 129.738C256.005 128.756 256.853 127.961 257.899 127.961C258.946 127.961 259.794 128.756 259.794 129.738Z" fill="white"/>
<path d="M259.794 129.738C259.794 130.719 258.946 131.515 257.899 131.515C256.853 131.515 256.005 130.719 256.005 129.738C256.005 128.756 256.853 127.961 257.899 127.961C258.946 127.961 259.794 128.756 259.794 129.738Z" stroke="white" stroke-width="1.33333" stroke-miterlimit="10"/>
<path d="M136.282 104.122C136.282 105.103 135.434 105.899 134.388 105.899C133.341 105.899 132.493 105.103 132.493 104.122C132.493 103.141 133.341 102.345 134.388 102.345C135.434 102.345 136.282 103.141 136.282 104.122Z" fill="white"/>
<path d="M136.282 104.122C136.282 105.103 135.434 105.899 134.388 105.899C133.341 105.899 132.493 105.103 132.493 104.122C132.493 103.141 133.341 102.345 134.388 102.345C135.434 102.345 136.282 103.141 136.282 104.122Z" stroke="white" stroke-width="1.33333" stroke-miterlimit="10"/>
<path d="M207.243 87.3516C207.243 88.3329 206.394 89.1285 205.348 89.1285C204.302 89.1285 203.454 88.3329 203.454 87.3516C203.454 86.37 204.302 85.5748 205.348 85.5748C206.394 85.5748 207.243 86.37 207.243 87.3516Z" fill="white"/>
<path d="M207.243 87.3516C207.243 88.3329 206.394 89.1285 205.348 89.1285C204.302 89.1285 203.454 88.3329 203.454 87.3516C203.454 86.37 204.302 85.5748 205.348 85.5748C206.394 85.5748 207.243 86.37 207.243 87.3516Z" stroke="white" stroke-width="1.33333" stroke-miterlimit="10"/>
<path d="M109.998 87.8834C109.998 88.8642 109.15 89.6599 108.104 89.6599C107.057 89.6599 106.209 88.8642 106.209 87.8834C106.209 86.9018 107.057 86.1061 108.104 86.1061C109.15 86.1061 109.998 86.9018 109.998 87.8834Z" fill="white"/>
<path d="M109.998 87.8834C109.998 88.8642 109.15 89.6599 108.104 89.6599C107.057 89.6599 106.209 88.8642 106.209 87.8834C106.209 86.9018 107.057 86.1061 108.104 86.1061C109.15 86.1061 109.998 86.9018 109.998 87.8834Z" stroke="white" stroke-width="1.33333" stroke-miterlimit="10"/>
<path d="M282.124 103.592C282.124 104.574 281.277 105.369 280.23 105.369C279.184 105.369 278.335 104.574 278.335 103.592C278.335 102.611 279.184 101.815 280.23 101.815C281.277 101.815 282.124 102.611 282.124 103.592Z" fill="white"/>
<path d="M282.124 103.592C282.124 104.574 281.277 105.369 280.23 105.369C279.184 105.369 278.335 104.574 278.335 103.592C278.335 102.611 279.184 101.815 280.23 101.815C281.277 101.815 282.124 102.611 282.124 103.592Z" stroke="white" stroke-width="1.33333" stroke-miterlimit="10"/>
<path d="M192.494 130.253C192.494 131.234 191.646 132.03 190.6 132.03C189.553 132.03 188.705 131.234 188.705 130.253C188.705 129.272 189.553 128.476 190.6 128.476C191.646 128.476 192.494 129.272 192.494 130.253Z" fill="white"/>
<path d="M192.494 130.253C192.494 131.234 191.646 132.03 190.6 132.03C189.553 132.03 188.705 131.234 188.705 130.253C188.705 129.272 189.553 128.476 190.6 128.476C191.646 128.476 192.494 129.272 192.494 130.253V130.253Z" stroke="white" stroke-width="1.33333" stroke-miterlimit="10"/>
</g>
<defs>
<clipPath id="clip0_811_10526">
<rect width="375" height="151.611" fill="white"/>
</clipPath>
</defs>
</svg>
