<svg width="16" height="15" viewBox="0 0 16 15" fill="none" xmlns="http://www.w3.org/2000/svg">
<path d="M14.6666 6.76665V2.23331C14.6666 1.23331 14.2399 0.833313 13.1799 0.833313H10.4866C9.42658 0.833313 8.99992 1.23331 8.99992 2.23331V6.76665C8.99992 7.76665 9.42658 8.16665 10.4866 8.16665H13.1799C14.2399 8.16665 14.6666 7.76665 14.6666 6.76665ZM14.6666 12.7666V11.5666C14.6666 10.5666 14.2399 10.1666 13.1799 10.1666H10.4866C9.42658 10.1666 8.99992 10.5666 8.99992 11.5666V12.7666C8.99992 13.7666 9.42658 14.1666 10.4866 14.1666H13.1799C14.2399 14.1666 14.6666 13.7666 14.6666 12.7666ZM6.99992 8.23331V12.7666C6.99992 13.7666 6.57325 14.1666 5.51325 14.1666H2.81992C1.75992 14.1666 1.33325 13.7666 1.33325 12.7666V8.23331C1.33325 7.23331 1.75992 6.83331 2.81992 6.83331H5.51325C6.57325 6.83331 6.99992 7.23331 6.99992 8.23331ZM6.99992 2.23331V3.43331C6.99992 4.43331 6.57325 4.83331 5.51325 4.83331H2.81992C1.75992 4.83331 1.33325 4.43331 1.33325 3.43331V2.23331C1.33325 1.23331 1.75992 0.833313 2.81992 0.833313H5.51325C6.57325 0.833313 6.99992 1.23331 6.99992 2.23331Z" stroke="white" stroke-linecap="round" stroke-linejoin="round"/>
</svg>
