<svg width="20" height="20" viewBox="0 0 20 20" fill="none" xmlns="http://www.w3.org/2000/svg">
<g clip-path="url(#clip0_701_6943)">
<path d="M18.3334 9.08335V3.41669C18.3334 2.16669 17.8001 1.66669 16.4751 1.66669H13.1084C11.7834 1.66669 11.2501 2.16669 11.2501 3.41669V9.08335C11.2501 10.3334 11.7834 10.8334 13.1084 10.8334H16.4751C17.8001 10.8334 18.3334 10.3334 18.3334 9.08335ZM18.3334 16.5834V15.0834C18.3334 13.8334 17.8001 13.3334 16.4751 13.3334H13.1084C11.7834 13.3334 11.2501 13.8334 11.2501 15.0834V16.5834C11.2501 17.8334 11.7834 18.3334 13.1084 18.3334H16.4751C17.8001 18.3334 18.3334 17.8334 18.3334 16.5834ZM8.75008 10.9167V16.5834C8.75008 17.8334 8.21675 18.3334 6.89175 18.3334H3.52508C2.20008 18.3334 1.66675 17.8334 1.66675 16.5834V10.9167C1.66675 9.66669 2.20008 9.16669 3.52508 9.16669H6.89175C8.21675 9.16669 8.75008 9.66669 8.75008 10.9167ZM8.75008 3.41669V4.91669C8.75008 6.16669 8.21675 6.66669 6.89175 6.66669H3.52508C2.20008 6.66669 1.66675 6.16669 1.66675 4.91669V3.41669C1.66675 2.16669 2.20008 1.66669 3.52508 1.66669H6.89175C8.21675 1.66669 8.75008 2.16669 8.75008 3.41669Z" stroke="white" stroke-width="1.5" stroke-linecap="round" stroke-linejoin="round"/>
</g>
<defs>
<clipPath id="clip0_701_6943">
<rect width="20" height="20" fill="white"/>
</clipPath>
</defs>
</svg>
