<svg width="16" height="17" viewBox="0 0 16 17" fill="none" xmlns="http://www.w3.org/2000/svg">
<path d="M6.33325 9.66667C6.33325 10.3133 6.83325 10.8333 7.44659 10.8333H8.69992C9.23325 10.8333 9.66659 10.38 9.66659 9.81333C9.66659 9.20667 9.39992 8.98667 9.00659 8.84667L6.99992 8.14667C6.60659 8.00667 6.33992 7.79333 6.33992 7.18C6.33992 6.62 6.77325 6.16 7.30659 6.16H8.55992C9.17325 6.16 9.67325 6.68 9.67325 7.32667M7.99992 5.5V11.5" stroke="white" stroke-linecap="round" stroke-linejoin="round"/>
<path d="M14.6666 8.50004C14.6666 12.18 11.6799 15.1667 7.99992 15.1667C4.31992 15.1667 1.33325 12.18 1.33325 8.50004C1.33325 4.82004 4.31992 1.83337 7.99992 1.83337" stroke="white" stroke-linecap="round" stroke-linejoin="round"/>
<path d="M11.3333 2.50004V5.16671M11.3333 5.16671H13.9999M11.3333 5.16671L14.6666 1.83337" stroke="white" stroke-linecap="round" stroke-linejoin="round"/>
</svg>
