<svg width="20" height="20" viewBox="0 0 20 20" fill="none" xmlns="http://www.w3.org/2000/svg">
<path d="M12.7 18.5583H12.5916C8.89164 18.5583 7.1083 17.1 6.79997 13.8333C6.76664 13.4917 7.01664 13.1833 7.36664 13.15C7.7083 13.1167 8.01664 13.375 8.04997 13.7167C8.29164 16.3333 9.52497 17.3083 12.6 17.3083H12.7083C16.1 17.3083 17.3 16.1083 17.3 12.7167V7.28332C17.3 3.89165 16.1 2.69165 12.7083 2.69165H12.6C9.5083 2.69165 8.27497 3.68332 8.04997 6.34998C8.0083 6.69165 7.72497 6.94998 7.36664 6.91665C7.28451 6.91023 7.20445 6.88766 7.13106 6.85024C7.05767 6.81281 6.9924 6.76126 6.93897 6.69855C6.88555 6.63584 6.84504 6.5632 6.81975 6.48479C6.79447 6.40638 6.78492 6.32376 6.79164 6.24165C7.07497 2.92498 8.86664 1.44165 12.5916 1.44165H12.7C16.7916 1.44165 18.5416 3.19165 18.5416 7.28332V12.7167C18.5416 16.8083 16.7916 18.5583 12.7 18.5583Z" fill="white"/>
<path d="M12.4001 10.625H1.66675C1.32508 10.625 1.04175 10.3417 1.04175 10C1.04175 9.65833 1.32508 9.375 1.66675 9.375H12.4001C12.5658 9.375 12.7248 9.44085 12.842 9.55806C12.9592 9.67527 13.0251 9.83424 13.0251 10C13.0251 10.1658 12.9592 10.3247 12.842 10.4419C12.7248 10.5592 12.5658 10.625 12.4001 10.625Z" fill="white"/>
<path d="M10.5418 13.4167C10.3835 13.4167 10.2251 13.3584 10.1001 13.2334C9.98389 13.1158 9.9187 12.9571 9.9187 12.7917C9.9187 12.6263 9.98389 12.4676 10.1001 12.35L12.4501 10L10.1001 7.65003C9.98389 7.53242 9.9187 7.37372 9.9187 7.20837C9.9187 7.04301 9.98389 6.88431 10.1001 6.7667C10.3418 6.52503 10.7418 6.52503 10.9835 6.7667L13.7751 9.55837C14.0168 9.80003 14.0168 10.2 13.7751 10.4417L10.9835 13.2334C10.8585 13.3584 10.7001 13.4167 10.5418 13.4167Z" fill="white"/>
</svg>
