<svg width="20" height="20" viewBox="0 0 20 20" fill="none" xmlns="http://www.w3.org/2000/svg">
<path d="M13.6749 3.33328C15.2916 3.33328 16.5916 4.64162 16.5916 6.24995C16.5916 7.82495 15.3416 9.10828 13.7833 9.16662C13.7113 9.15828 13.6386 9.15828 13.5666 9.16662M15.2833 16.6666C15.8833 16.5416 16.4499 16.2999 16.9166 15.9416C18.2166 14.9666 18.2166 13.3583 16.9166 12.3833C16.4583 12.0333 15.8999 11.7999 15.3083 11.6666M7.63327 9.05828C7.54993 9.04995 7.44993 9.04995 7.35827 9.05828C6.40177 9.02581 5.49547 8.62231 4.83129 7.93325C4.16712 7.24419 3.79722 6.32366 3.79993 5.36662C3.79993 3.32495 5.44993 1.66662 7.49993 1.66662C8.48013 1.64894 9.4272 2.02136 10.1328 2.70196C10.8384 3.38256 11.2448 4.31559 11.2624 5.29578C11.2801 6.27598 10.9077 7.22305 10.2271 7.92866C9.54649 8.63426 8.61346 9.0406 7.63327 9.05828ZM3.4666 12.1333C1.44993 13.4833 1.44993 15.6833 3.4666 17.025C5.75827 18.5583 9.5166 18.5583 11.8083 17.025C13.8249 15.675 13.8249 13.4749 11.8083 12.1333C9.52494 10.6083 5.7666 10.6083 3.4666 12.1333Z" stroke="white" stroke-width="1.5" stroke-linecap="round" stroke-linejoin="round"/>
</svg>
