<svg width="20" height="20" viewBox="0 0 20 20" fill="none" xmlns="http://www.w3.org/2000/svg">
<path d="M15.0001 6.59335H14.8917C13.3167 6.54335 12.1417 5.32669 12.1417 3.82669C12.1417 2.29335 13.3917 1.05169 14.9167 1.05169C16.4417 1.05169 17.6917 2.30169 17.6917 3.82669C17.6928 4.54724 17.4132 5.23989 16.9123 5.75788C16.4115 6.27587 15.7286 6.57851 15.0084 6.60169C15.0084 6.59335 15.0084 6.59335 15.0001 6.59335ZM14.9167 2.29335C14.0751 2.29335 13.3917 2.97669 13.3917 3.81835C13.3917 4.64335 14.0334 5.31002 14.8584 5.34335C14.8667 5.33502 14.9334 5.33502 15.0084 5.34335C15.403 5.31734 15.7721 5.13923 16.038 4.84653C16.3039 4.55384 16.4458 4.16939 16.4339 3.77413C16.4221 3.37887 16.2573 3.00365 15.9743 2.72745C15.6913 2.45125 15.3122 2.29563 14.9167 2.29335ZM15.0076 12.7334C14.6826 12.7334 14.3576 12.7084 14.0326 12.65C13.9515 12.6359 13.8741 12.606 13.8046 12.5619C13.7352 12.5178 13.6751 12.4604 13.6279 12.3931C13.5807 12.3257 13.5472 12.2497 13.5294 12.1694C13.5116 12.0891 13.5099 12.006 13.5242 11.925C13.5383 11.844 13.5683 11.7665 13.6124 11.6971C13.6565 11.6276 13.7138 11.5676 13.7812 11.5203C13.8486 11.4731 13.9246 11.4396 14.0049 11.4218C14.0852 11.4041 14.1683 11.4023 14.2492 11.4167C15.2742 11.5917 16.3576 11.4 17.0826 10.9167C17.4742 10.6584 17.6826 10.3334 17.6826 10.0084C17.6826 9.68336 17.4659 9.36669 17.0826 9.10835C16.3576 8.62502 15.2576 8.43335 14.2242 8.61669C13.8826 8.68335 13.5576 8.45002 13.4992 8.10835C13.4409 7.76669 13.6659 7.44169 14.0076 7.38335C15.3659 7.14169 16.7742 7.40002 17.7742 8.06669C18.5076 8.55835 18.9326 9.25836 18.9326 10.0084C18.9326 10.75 18.5159 11.4584 17.7742 11.9584C17.0159 12.4584 16.0326 12.7334 15.0076 12.7334ZM4.97508 6.59169H4.95841C4.23947 6.56918 3.55747 6.26789 3.05668 5.75155C2.55589 5.23522 2.27559 4.54432 2.27508 3.82502C2.27508 2.29169 3.52508 1.04169 5.05008 1.04169C6.57508 1.04169 7.82508 2.29169 7.82508 3.81669C7.82508 5.32502 6.65008 6.54169 5.15008 6.59169L4.97508 5.96669L5.03341 6.59169H4.97508ZM5.05841 5.34169C5.10841 5.34169 5.15008 5.34169 5.20008 5.35002C5.94175 5.31669 6.59175 4.65002 6.59175 3.82502C6.5913 3.52705 6.50358 3.23574 6.3394 2.98708C6.17523 2.73841 5.94181 2.54329 5.66797 2.42582C5.39414 2.30834 5.09189 2.27367 4.79856 2.32607C4.50523 2.37847 4.23369 2.51565 4.01746 2.72067C3.80124 2.92569 3.64981 3.18957 3.58189 3.47969C3.51398 3.76982 3.53254 4.07349 3.63529 4.35318C3.73804 4.63287 3.92048 4.87634 4.16007 5.05349C4.39965 5.23065 4.68589 5.33374 4.98341 5.35002C4.99175 5.34169 5.02508 5.34169 5.05841 5.34169ZM4.96675 12.7334C3.94175 12.7334 2.95841 12.4584 2.20008 11.9584C1.46675 11.4667 1.04175 10.7584 1.04175 10.0084C1.04175 9.26669 1.46675 8.55835 2.20008 8.06669C3.20008 7.40002 4.60841 7.14169 5.96675 7.38335C6.30841 7.44169 6.53341 7.76669 6.47508 8.10835C6.41675 8.45002 6.09175 8.68335 5.75008 8.61669C4.71675 8.43335 3.62508 8.62502 2.89175 9.10835C2.50008 9.36669 2.29175 9.68336 2.29175 10.0084C2.29175 10.3334 2.50841 10.6584 2.89175 10.9167C3.61675 11.4 4.70008 11.5917 5.72508 11.4167C6.06675 11.3584 6.39175 11.5917 6.45008 11.925C6.50841 12.2667 6.28341 12.5917 5.94175 12.65C5.61675 12.7084 5.29175 12.7334 4.96675 12.7334ZM10.0001 12.8167H9.89175C8.31675 12.7667 7.14175 11.55 7.14175 10.05C7.14175 8.51669 8.39175 7.27502 9.91675 7.27502C11.4417 7.27502 12.6917 8.52502 12.6917 10.05C12.6928 10.7706 12.4132 11.4632 11.9123 11.9812C11.4115 12.4992 10.7286 12.8018 10.0084 12.825C10.0084 12.8167 10.0084 12.8167 10.0001 12.8167ZM9.91675 8.51669C9.07508 8.51669 8.39175 9.20002 8.39175 10.0417C8.39175 10.8667 9.03341 11.5334 9.85841 11.5667C9.86675 11.5584 9.93341 11.5584 10.0084 11.5667C10.8167 11.525 11.4417 10.8584 11.4501 10.0417C11.4501 9.20835 10.7667 8.51669 9.91675 8.51669ZM10.0009 18.9659C9.00092 18.9659 8.00091 18.7075 7.22591 18.1825C6.49258 17.6909 6.06758 16.9909 6.06758 16.2409C6.06758 15.4992 6.48425 14.7825 7.22591 14.2909C8.78425 13.2575 11.2259 13.2575 12.7759 14.2909C13.5092 14.7825 13.9342 15.4825 13.9342 16.2325C13.9342 16.9742 13.5176 17.6909 12.7759 18.1825C12.0009 18.6992 11.0009 18.9659 10.0009 18.9659ZM7.91758 15.3409C7.52591 15.5992 7.31758 15.9242 7.31758 16.2492C7.31758 16.5742 7.53425 16.8909 7.91758 17.1492C9.04258 17.9075 10.9509 17.9075 12.0759 17.1492C12.4676 16.8909 12.6759 16.5659 12.6759 16.2409C12.6759 15.9159 12.4592 15.5992 12.0759 15.3409C10.9592 14.5825 9.05091 14.5909 7.91758 15.3409Z" fill="white"/>
</svg>
