<svg width="9" height="16" viewBox="0 0 9 16" fill="none" xmlns="http://www.w3.org/2000/svg">
<path d="M1.44751 9.78445L1.4482 9.78513L6.88153 15.2185C7.05588 15.3928 7.27891 15.475 7.49997 15.475C7.72838 15.475 7.94611 15.3795 8.11222 15.2244L8.11232 15.2246L8.11842 15.2185C8.45771 14.8792 8.45771 14.3209 8.11842 13.9816L2.68508 8.54824C2.38271 8.24587 2.38271 7.75416 2.68508 7.45179L8.11842 2.01846C8.45771 1.67916 8.45771 1.12087 8.11842 0.781573C7.77912 0.442275 7.22083 0.442275 6.88153 0.781573L1.44819 6.21491L1.44752 6.21559C0.976636 6.69011 0.712402 7.33151 0.712402 8.00002C0.712402 8.66852 0.976636 9.30993 1.44751 9.78445Z" fill="white" stroke="white" stroke-width="0.5"/>
</svg>
