<svg width="30" height="30" viewBox="0 0 30 30" fill="none" xmlns="http://www.w3.org/2000/svg">
<path d="M10.5013 21.1076L21.1079 10.501C21.5484 10.0605 21.5484 9.33288 21.1079 8.89238C20.6674 8.45188 19.9397 8.45188 19.4992 8.89238L8.89258 19.499C8.45209 19.9395 8.45209 20.6672 8.89258 21.1076C9.33308 21.5481 10.0608 21.5481 10.5013 21.1076Z" fill="#929EAE" stroke="#929EAE" stroke-width="0.4"/>
<path d="M19.4989 21.1076C19.9394 21.5481 20.6671 21.5481 21.1076 21.1076C21.5481 20.6671 21.5481 19.9394 21.1076 19.4989L10.501 8.89229C10.0605 8.45179 9.33284 8.45179 8.89234 8.89229C8.45184 9.33279 8.45184 10.0605 8.89234 10.501L19.4989 21.1076Z" fill="#929EAE" stroke="#929EAE" stroke-width="0.4"/>
</svg>
