<svg width="12" height="7" viewBox="0 0 12 7" fill="none" xmlns="http://www.w3.org/2000/svg">
<path d="M0.928586 1.67058L0.928583 1.67058L0.929419 1.67142L4.73275 5.47475C5.0807 5.8227 5.54046 6 6.00001 6C6.45955 6 6.91931 5.8227 7.26726 5.47475L11.0706 1.67142C11.3179 1.42415 11.3179 1.01752 11.0706 0.770244C10.8233 0.522972 10.4167 0.522972 10.1694 0.770244L6.36609 4.57358C6.16419 4.77547 5.83582 4.77547 5.63393 4.57358L1.83059 0.770244C1.58332 0.522972 1.17669 0.522972 0.929419 0.770244L0.929416 0.770241L0.928586 0.771081C0.810225 0.890849 0.743848 1.05245 0.743848 1.22083C0.743848 1.38922 0.810225 1.55081 0.928586 1.67058Z" fill="#929EAE" stroke="#929EAE" stroke-width="0.4"/>
</svg>
