<svg width="20" height="20" viewBox="0 0 20 20" fill="none" xmlns="http://www.w3.org/2000/svg">
<path d="M4.61666 16.2667C4.10832 16.2667 3.63332 16.0917 3.29166 15.7667C2.85832 15.3584 2.64999 14.7417 2.72499 14.075L3.03332 11.375C3.09166 10.8667 3.39999 10.1917 3.75832 9.82502L10.6 2.58335C12.3083 0.77502 14.0917 0.725021 15.9 2.43335C17.7083 4.14169 17.7583 5.92502 16.05 7.73335L9.20832 14.975C8.85832 15.35 8.20832 15.7 7.69999 15.7834L5.01666 16.2417C4.87499 16.25 4.74999 16.2667 4.61666 16.2667ZM13.275 2.42502C12.6333 2.42502 12.075 2.82502 11.5083 3.42502L4.66666 10.675C4.49999 10.85 4.30832 11.2667 4.27499 11.5084L3.96666 14.2084C3.93332 14.4834 3.99999 14.7084 4.14999 14.85C4.29999 14.9917 4.52499 15.0417 4.79999 15L7.48332 14.5417C7.72499 14.5 8.12499 14.2834 8.29166 14.1084L15.1333 6.86669C16.1667 5.76669 16.5417 4.75002 15.0333 3.33335C14.3667 2.69169 13.7917 2.42502 13.275 2.42502Z" fill="white"/>
<path d="M14.45 9.12418H14.3917C13.1287 9.00032 11.9429 8.45977 11.0211 7.5877C10.0992 6.71563 9.49372 5.56163 9.3 4.30752C9.25 3.96585 9.48333 3.64918 9.825 3.59085C10.1667 3.54085 10.4833 3.77418 10.5417 4.11585C10.6942 5.09639 11.1683 5.99844 11.8893 6.68024C12.6103 7.36205 13.5375 7.78496 14.525 7.88251C14.8667 7.91585 15.1167 8.22418 15.0833 8.56585C15.0417 8.88252 14.7667 9.12418 14.45 9.12418ZM17.5 18.9583H2.5C2.15833 18.9583 1.875 18.675 1.875 18.3333C1.875 17.9917 2.15833 17.7083 2.5 17.7083H17.5C17.8417 17.7083 18.125 17.9917 18.125 18.3333C18.125 18.675 17.8417 18.9583 17.5 18.9583Z" fill="white"/>
</svg>
