<svg width="24" height="24" viewBox="0 0 24 24" fill="none" xmlns="http://www.w3.org/2000/svg">
<path d="M8.42919 16.9144L16.9145 8.42915C17.2825 8.06113 17.2825 7.45366 16.9145 7.08564C16.5465 6.71762 15.939 6.71762 15.571 7.08564L7.08569 15.5709C6.71767 15.9389 6.71767 16.5464 7.08569 16.9144C7.4537 17.2824 8.06117 17.2824 8.42919 16.9144Z" fill="white" stroke="white" stroke-width="0.4"/>
<path d="M15.571 16.9143C15.939 17.2823 16.5465 17.2823 16.9145 16.9143C17.2825 16.5463 17.2825 15.9388 16.9145 15.5708L8.42919 7.08551C8.06117 6.71749 7.4537 6.71749 7.08569 7.08551C6.71767 7.45353 6.71767 8.061 7.08569 8.42901L15.571 16.9143Z" fill="white" stroke="white" stroke-width="0.4"/>
</svg>
