<svg width="19" height="18" viewBox="0 0 19 18" fill="none" xmlns="http://www.w3.org/2000/svg">
<g clip-path="url(#clip0_701_5518)">
<path d="M17.5906 15.3932H11.3955C10.9591 15.3932 10.6052 15.0393 10.6052 14.6029C10.6052 14.1664 10.9591 13.8126 11.3955 13.8126H17.5906C18.027 13.8126 18.3809 14.1664 18.3809 14.6029C18.3809 15.0393 18.027 15.3932 17.5906 15.3932Z" fill="white"/>
<path d="M11.2477 4.16723H1.38919C0.952739 4.16723 0.598877 3.81337 0.598877 3.37692C0.598877 2.94047 0.952739 2.58661 1.38919 2.58661H11.2477C11.6842 2.58661 12.0381 2.94047 12.0381 3.37692C12.0381 3.81337 11.6842 4.16723 11.2477 4.16723Z" fill="white"/>
<path d="M17.5906 9.78021H6.80838C6.37193 9.78021 6.01807 9.42635 6.01807 8.9899C6.01807 8.55345 6.37193 8.19958 6.80838 8.19958H17.5906C18.0271 8.19958 18.3809 8.55345 18.3809 8.9899C18.3809 9.42635 18.0271 9.78021 17.5906 9.78021Z" fill="white"/>
<path d="M7.73184 15.3932H1.38919C0.952739 15.3932 0.598877 15.0393 0.598877 14.6029C0.598877 14.1664 0.952739 13.8126 1.38919 13.8126H7.73184C8.16829 13.8126 8.52216 14.1664 8.52216 14.6029C8.52216 15.0393 8.16829 15.3932 7.73184 15.3932Z" fill="white"/>
<path d="M3.29246 9.78021H1.38919C0.952739 9.78021 0.598877 9.42635 0.598877 8.9899C0.598877 8.55345 0.952739 8.19958 1.38919 8.19958H3.29246C3.72891 8.19958 4.08277 8.55345 4.08277 8.9899C4.08277 9.42635 3.72891 9.78021 3.29246 9.78021Z" fill="white"/>
<path d="M17.5907 4.16723H14.7981C14.3617 4.16723 14.0078 3.81337 14.0078 3.37692C14.0078 2.94047 14.3617 2.58661 14.7981 2.58661H17.5907C18.0271 2.58661 18.381 2.94047 18.381 3.37692C18.381 3.81337 18.0271 4.16723 17.5907 4.16723Z" fill="white"/>
<path d="M10.5707 16.3609H8.40923C8.03522 16.3609 7.73193 16.0577 7.73193 15.6837V13.5221C7.73193 13.1481 8.03522 12.8448 8.40923 12.8448H10.5707C10.9448 12.8448 11.248 13.1481 11.248 13.5221V15.6837C11.248 16.0577 10.9448 16.3609 10.5707 16.3609Z" fill="white"/>
<path d="M6.13104 10.748H3.96953C3.59552 10.748 3.29224 10.4447 3.29224 10.0707V7.90917C3.29224 7.53515 3.59552 7.23187 3.96953 7.23187H6.13104C6.50505 7.23187 6.80834 7.53515 6.80834 7.90917V10.0707C6.80834 10.4447 6.50505 10.748 6.13104 10.748Z" fill="white"/>
<path d="M14.0868 5.13475H11.9253C11.5513 5.13475 11.248 4.83147 11.248 4.45745V2.29595C11.248 1.92193 11.5513 1.61865 11.9253 1.61865H14.0868C14.4609 1.61865 14.7641 1.92193 14.7641 2.29595V4.45745C14.764 4.83167 14.4609 5.13475 14.0868 5.13475Z" fill="white"/>
</g>
<defs>
<clipPath id="clip0_701_5518">
<rect width="18" height="18" fill="white" transform="translate(0.5)"/>
</clipPath>
</defs>
</svg>
