<svg width="7" height="12" viewBox="0 0 7 12" fill="none" xmlns="http://www.w3.org/2000/svg">
<path d="M1.24597 11.0698L1.2468 11.0706C1.37379 11.1976 1.53638 11.2575 1.69739 11.2575C1.86428 11.2575 2.02263 11.1877 2.14302 11.0754L2.1431 11.0755L2.14798 11.0706L5.94993 7.26863C5.95017 7.2684 5.95041 7.26817 5.95064 7.26793C6.29321 6.93157 6.47655 6.47732 6.47655 6.00001C6.47655 5.52069 6.286 5.06745 5.95131 4.73276L2.14798 0.929423C1.90071 0.682152 1.49407 0.682152 1.2468 0.929423L1.2468 0.929421L1.24597 0.930261C1.12761 1.05003 1.06123 1.21163 1.06123 1.38001C1.06123 1.5484 1.12761 1.70999 1.24597 1.82976L1.24597 1.82976L1.2468 1.8306L5.05013 5.63393C5.25203 5.83583 5.25203 6.1642 5.05013 6.36609L1.2468 10.1694L1.2468 10.1694L1.24597 10.1703C1.12761 10.29 1.06123 10.4516 1.06123 10.62C1.06123 10.7884 1.12761 10.95 1.24597 11.0698Z" fill="white" stroke="white" stroke-width="0.4"/>
</svg>
