<svg width="14" height="14" viewBox="0 0 14 14" fill="none" xmlns="http://www.w3.org/2000/svg">
<g clip-path="url(#clip0_1282_9134)">
<path d="M7.00008 12.8337C10.2218 12.8337 12.8334 10.2221 12.8334 7.00033C12.8334 3.77858 10.2218 1.16699 7.00008 1.16699C3.77833 1.16699 1.16675 3.77858 1.16675 7.00033C1.16675 10.2221 3.77833 12.8337 7.00008 12.8337Z" stroke="#929EAE" stroke-linecap="round" stroke-linejoin="round"/>
<path d="M4.66675 1.75H5.25008C4.1126 5.15758 4.1126 8.84242 5.25008 12.25H4.66675M8.75008 1.75C9.88756 5.15758 9.88756 8.84242 8.75008 12.25" stroke="#929EAE" stroke-linecap="round" stroke-linejoin="round"/>
<path d="M1.75 9.33293V8.7496C5.15758 9.88708 8.84242 9.88708 12.25 8.7496V9.33293M1.75 5.2496C5.15758 4.11211 8.84242 4.11211 12.25 5.2496" stroke="#929EAE" stroke-linecap="round" stroke-linejoin="round"/>
</g>
<defs>
<clipPath id="clip0_1282_9134">
<rect width="14" height="14" fill="white"/>
</clipPath>
</defs>
</svg>
