<svg width="18" height="19" viewBox="0 0 18 19" fill="none" xmlns="http://www.w3.org/2000/svg">
<path d="M9 17.5625C4.5525 17.5625 0.9375 13.9475 0.9375 9.5C0.9375 5.0525 4.5525 1.4375 9 1.4375C13.4475 1.4375 17.0625 5.0525 17.0625 9.5C17.0625 13.9475 13.4475 17.5625 9 17.5625ZM9 2.5625C5.175 2.5625 2.0625 5.675 2.0625 9.5C2.0625 13.325 5.175 16.4375 9 16.4375C12.825 16.4375 15.9375 13.325 15.9375 9.5C15.9375 5.675 12.825 2.5625 9 2.5625Z" fill="#929EAE"/>
<path d="M9 10.8125C8.6925 10.8125 8.4375 10.5575 8.4375 10.25V6.5C8.4375 6.1925 8.6925 5.9375 9 5.9375C9.3075 5.9375 9.5625 6.1925 9.5625 6.5V10.25C9.5625 10.5575 9.3075 10.8125 9 10.8125ZM9 13.2493C8.9025 13.2493 8.805 13.2268 8.715 13.1893C8.625 13.1518 8.5425 13.0993 8.4675 13.0318C8.4 12.9568 8.3475 12.8818 8.31 12.7843C8.27148 12.6941 8.25109 12.5973 8.25 12.4993C8.25 12.4018 8.2725 12.3043 8.31 12.2143C8.3475 12.1243 8.4 12.0418 8.4675 11.9668C8.5425 11.8993 8.625 11.8468 8.715 11.8093C8.8976 11.7342 9.1024 11.7342 9.285 11.8093C9.375 11.8468 9.4575 11.8993 9.5325 11.9668C9.6 12.0418 9.6525 12.1243 9.69 12.2143C9.7275 12.3043 9.75 12.4018 9.75 12.4993C9.75 12.5968 9.7275 12.6943 9.69 12.7843C9.6525 12.8818 9.6 12.9568 9.5325 13.0318C9.4575 13.0993 9.375 13.1518 9.285 13.1893C9.195 13.2268 9.0975 13.2493 9 13.2493Z" fill="#929EAE"/>
</svg>
