<svg width="16" height="17" viewBox="0 0 16 17" fill="none" xmlns="http://www.w3.org/2000/svg">
<path d="M12.3133 11.7197L12.5733 13.8263C12.64 14.3797 12.0466 14.7663 11.5733 14.4797L8.77998 12.8197C8.47331 12.8197 8.17331 12.7997 7.87998 12.7597C8.3853 12.1739 8.66434 11.4266 8.66664 10.653C8.66664 8.75967 7.02664 7.22634 4.99998 7.22634C4.22664 7.22634 3.51331 7.44634 2.91998 7.83301C2.89998 7.66634 2.89331 7.49967 2.89331 7.32634C2.89331 4.29301 5.52664 1.83301 8.77998 1.83301C12.0333 1.83301 14.6666 4.29301 14.6666 7.32634C14.6666 9.12634 13.74 10.7197 12.3133 11.7197Z" stroke="#929EAE" stroke-linecap="round" stroke-linejoin="round"/>
<path d="M8.66659 10.6532C8.66659 11.4466 8.37325 12.1799 7.87992 12.7599C7.21992 13.5599 6.17325 14.0732 4.99992 14.0732L3.25992 15.1066C2.96659 15.2866 2.59325 15.0399 2.63325 14.6999L2.79992 13.3866C1.90659 12.7666 1.33325 11.7732 1.33325 10.6532C1.33325 9.47989 1.95992 8.44656 2.91992 7.83323C3.51325 7.44656 4.22659 7.22656 4.99992 7.22656C7.02659 7.22656 8.66659 8.7599 8.66659 10.6532Z" stroke="#929EAE" stroke-linecap="round" stroke-linejoin="round"/>
</svg>
