<svg width="16" height="17" viewBox="0 0 16 17" fill="none" xmlns="http://www.w3.org/2000/svg">
<path d="M5.66659 13.1663H5.33325C2.66659 13.1663 1.33325 12.4997 1.33325 9.16634V5.83301C1.33325 3.16634 2.66659 1.83301 5.33325 1.83301H10.6666C13.3333 1.83301 14.6666 3.16634 14.6666 5.83301V9.16634C14.6666 11.833 13.3333 13.1663 10.6666 13.1663H10.3333C10.1266 13.1663 9.92658 13.2663 9.79992 13.433L8.79992 14.7663C8.35992 15.353 7.63992 15.353 7.19992 14.7663L6.19992 13.433C6.09325 13.2863 5.84659 13.1663 5.66659 13.1663Z" stroke="#929EAE" stroke-miterlimit="10" stroke-linecap="round" stroke-linejoin="round"/>
<path d="M4.66675 5.83301H11.3334M4.66675 9.16634H8.66675" stroke="#929EAE" stroke-linecap="round" stroke-linejoin="round"/>
</svg>
