<svg width="20" height="22" viewBox="0 0 20 22" fill="none" xmlns="http://www.w3.org/2000/svg">
<path d="M9.99991 11.75C6.82991 11.75 4.24991 9.17 4.24991 6C4.24991 2.83 6.82991 0.25 9.99991 0.25C13.1699 0.25 15.7499 2.83 15.7499 6C15.7499 9.17 13.1699 11.75 9.99991 11.75ZM9.99991 1.75C8.87355 1.75264 7.79408 2.20126 6.99763 2.99771C6.20117 3.79417 5.75255 4.87364 5.74991 6C5.75255 7.12636 6.20117 8.20583 6.99763 9.00229C7.79408 9.79875 8.87355 10.2474 9.99991 10.25C11.1263 10.2474 12.2057 9.79875 13.0022 9.00229C13.7987 8.20583 14.2473 7.12636 14.2499 6C14.2473 4.87364 13.7987 3.79417 13.0022 2.99771C12.2057 2.20126 11.1263 1.75264 9.99991 1.75ZM18.5899 21.75C18.1799 21.75 17.8399 21.41 17.8399 21C17.8399 17.55 14.3199 14.75 9.99991 14.75C5.67991 14.75 2.15991 17.55 2.15991 21C2.15991 21.41 1.81991 21.75 1.40991 21.75C0.999912 21.75 0.659912 21.41 0.659912 21C0.659912 16.73 4.84991 13.25 9.99991 13.25C15.1499 13.25 19.3399 16.73 19.3399 21C19.3399 21.41 18.9999 21.75 18.5899 21.75Z" fill="white"/>
</svg>
