<svg width="18" height="18" viewBox="0 0 18 18" fill="none" xmlns="http://www.w3.org/2000/svg">
<path d="M9.00012 9.5625C6.62262 9.5625 4.68762 7.6275 4.68762 5.25C4.68762 2.8725 6.62262 0.9375 9.00012 0.9375C11.3776 0.9375 13.3126 2.8725 13.3126 5.25C13.3126 7.6275 11.3776 9.5625 9.00012 9.5625ZM9.00012 2.0625C8.15535 2.06448 7.34574 2.40094 6.7484 2.99828C6.15106 3.59563 5.8146 4.40523 5.81262 5.25C5.8146 6.09477 6.15106 6.90437 6.7484 7.50171C7.34574 8.09906 8.15535 8.43552 9.00012 8.4375C9.84488 8.43552 10.6545 8.09906 11.2518 7.50171C11.8492 6.90437 12.1856 6.09477 12.1876 5.25C12.1856 4.40523 11.8492 3.59563 11.2518 2.99828C10.6545 2.40094 9.84488 2.06448 9.00012 2.0625ZM15.4426 17.0625C15.1351 17.0625 14.8801 16.8075 14.8801 16.5C14.8801 13.9125 12.2401 11.8125 9.00012 11.8125C5.76012 11.8125 3.12012 13.9125 3.12012 16.5C3.12012 16.8075 2.86512 17.0625 2.55762 17.0625C2.25012 17.0625 1.99512 16.8075 1.99512 16.5C1.99512 13.2975 5.13762 10.6875 9.00012 10.6875C12.8626 10.6875 16.0051 13.2975 16.0051 16.5C16.0051 16.8075 15.7501 17.0625 15.4426 17.0625Z" fill="white"/>
</svg>
