<svg width="14" height="14" viewBox="0 0 14 14" fill="none" xmlns="http://www.w3.org/2000/svg">
<path d="M11.2865 12.0467L11.2869 12.0471L12.4535 13.2138C12.5608 13.3211 12.6975 13.3714 12.8334 13.3714C12.9693 13.3714 13.1061 13.3211 13.2133 13.2138C13.4215 13.0056 13.4215 12.6623 13.2133 12.4541L12.0466 11.2874C11.8384 11.0792 11.4951 11.0792 11.2869 11.2874L11.2865 11.2878C11.1866 11.3889 11.1306 11.5252 11.1306 11.6673C11.1306 11.8093 11.1866 11.9457 11.2865 12.0467ZM0.629248 6.70835C0.629248 10.0594 3.35735 12.7875 6.70841 12.7875C10.0595 12.7875 12.7876 10.0594 12.7876 6.70835C12.7876 3.35729 10.0595 0.629187 6.70841 0.629187C3.35735 0.629187 0.629248 3.35729 0.629248 6.70835ZM1.70425 6.70835C1.70425 3.95184 3.94622 1.70419 6.70841 1.70419C9.47061 1.70419 11.7126 3.95184 11.7126 6.70835C11.7126 9.46487 9.47061 11.7125 6.70841 11.7125C3.94622 11.7125 1.70425 9.46487 1.70425 6.70835Z" fill="#929EAE" stroke="#929EAE" stroke-width="0.2"/>
</svg>
